<?xml version="1.0" standalone="no"?>
<!DOCTYPE svg PUBLIC "-//W3C//DTD SVG 20010904//EN"
 "http://www.w3.org/TR/2001/REC-SVG-20010904/DTD/svg10.dtd">
<svg version="1.0" xmlns="http://www.w3.org/2000/svg"
 width="500.000000pt" height="500.000000pt" viewBox="0 0 500.000000 500.000000"
 preserveAspectRatio="xMidYMid meet">
<metadata>
Created by potrace 1.14, written by Peter Selinger 2001-2017
</metadata>
<g transform="translate(0.000000,500.000000) scale(0.100000,-0.100000)"
fill="#000000" stroke="none">
<path d="M2690 4960 c0 -5 5 -10 11 -10 5 0 7 5 4 10 -3 6 -8 10 -11 10 -2 0
-4 -4 -4 -10z"/>
<path d="M2406 4945 c-3 -8 -2 -15 3 -15 4 0 22 -13 39 -29 16 -16 33 -27 36
-24 3 3 8 -2 12 -11 3 -9 15 -16 25 -16 10 0 18 -5 17 -12 -2 -7 2 -12 7 -13
11 0 28 -13 70 -52 13 -13 28 -23 33 -23 5 0 24 -13 43 -30 19 -16 39 -34 46
-40 7 -5 19 -10 28 -10 8 0 15 -7 15 -16 0 -8 5 -12 10 -9 6 3 10 2 10 -2 0
-19 67 -47 113 -49 30 0 52 -6 58 -15 7 -11 9 -11 9 -1 0 7 5 10 12 6 6 -4 47
-8 92 -10 44 -2 92 -6 106 -10 14 -4 28 -8 33 -9 4 -2 8 -3 10 -5 1 -1 29 -3
62 -5 33 -1 60 -3 60 -5 0 -4 63 -13 102 -14 22 -1 39 -5 35 -10 -3 -5 4 -7
14 -4 11 3 24 0 30 -6 5 -6 33 -11 61 -11 28 0 51 -4 50 -10 -1 -5 17 -10 41
-10 23 0 42 -4 42 -9 0 -4 6 -6 14 -3 8 3 16 1 18 -5 2 -6 20 -11 38 -12 19
-1 34 -6 33 -12 -1 -6 11 -10 28 -9 16 1 32 -2 35 -6 2 -5 11 -6 19 -2 8 3 15
0 15 -6 0 -6 11 -11 24 -11 14 0 31 -6 38 -12 7 -7 28 -14 47 -15 19 -1 37 -7
41 -13 4 -6 16 -12 28 -13 12 0 24 -7 26 -14 6 -15 52 -10 49 5 -2 6 7 10 18
9 19 -1 19 -2 -3 -18 l-22 -17 34 -14 c33 -14 33 -15 12 -20 -15 -4 -25 -2
-29 8 -3 8 -9 11 -14 8 -5 -3 -9 0 -9 6 0 7 -7 9 -16 6 -8 -3 -22 1 -30 9 -9
8 -28 15 -44 15 -16 0 -30 5 -32 10 -2 6 -14 11 -28 12 -14 1 -32 7 -40 13 -8
7 -23 11 -32 10 -10 -2 -18 1 -18 6 0 4 -7 6 -16 2 -9 -3 -20 0 -24 8 -5 7
-24 14 -42 14 -18 1 -46 7 -61 13 -16 7 -42 12 -58 12 -17 0 -28 4 -25 8 2 4
-5 8 -17 9 -44 2 -111 14 -117 21 -3 4 -23 7 -45 7 -22 0 -51 4 -65 8 -45 15
-64 19 -129 22 -35 2 -67 7 -70 12 -7 9 -17 10 -133 14 -42 2 -74 7 -72 11 3
4 -12 8 -33 9 -21 1 -70 2 -109 3 -46 1 -77 7 -87 16 -30 28 -46 40 -51 40 -6
0 -39 25 -67 52 -9 9 -20 14 -23 11 -3 -4 -6 -1 -6 5 0 7 -7 12 -16 12 -9 0
-12 5 -8 13 4 6 4 9 -1 5 -4 -4 -22 5 -40 20 -53 46 -89 72 -97 72 -4 0 -8 7
-8 15 0 8 -9 15 -21 15 -11 0 -17 5 -14 10 5 9 -1 11 -21 9 -8 0 -84 82 -84
92 0 5 -9 9 -20 9 -28 0 -25 -13 14 -54 18 -20 31 -38 28 -41 -3 -3 0 -5 6 -5
11 0 47 -28 88 -67 7 -7 17 -13 22 -13 6 0 12 -4 14 -8 2 -4 23 -23 48 -42 25
-19 48 -39 52 -45 5 -6 8 -6 8 -1 0 6 8 1 19 -10 30 -31 66 -60 84 -67 9 -3
17 -11 17 -17 0 -5 5 -10 10 -10 6 0 21 -10 33 -23 15 -16 34 -24 57 -24 51
-1 173 -14 183 -20 4 -2 48 -6 97 -8 50 -2 95 -7 102 -11 7 -4 44 -9 82 -11
38 -1 72 -6 75 -10 7 -9 31 -12 108 -16 28 -1 49 -5 46 -9 -2 -5 4 -9 14 -10
10 0 23 -2 28 -3 87 -13 105 -18 105 -26 0 -5 12 -7 26 -5 14 3 38 0 52 -6 36
-15 37 -15 78 -17 24 -1 33 -5 28 -13 -4 -6 -3 -8 4 -4 6 3 13 3 16 -2 3 -5
21 -8 40 -7 19 0 33 -3 30 -6 -6 -10 33 -22 46 -14 5 3 10 1 10 -5 0 -6 5 -8
10 -5 6 3 13 0 16 -9 3 -8 14 -13 25 -11 10 2 25 -2 32 -9 7 -7 26 -12 43 -12
23 1 30 -3 26 -13 -3 -9 -1 -12 6 -7 7 4 12 2 12 -4 0 -6 4 -9 9 -5 5 3 16 -2
25 -11 9 -8 20 -13 24 -10 5 3 20 -2 33 -12 34 -24 45 -23 57 3 10 21 9 23 -9
20 -17 -4 -25 10 -20 38 2 10 -17 9 -24 -2 -3 -5 -1 -12 5 -16 13 -8 13 -25 0
-25 -6 0 -9 5 -8 12 2 8 -8 12 -24 12 -15 -1 -25 3 -22 7 3 5 11 9 18 9 8 0
20 8 27 17 12 15 12 16 -3 10 -10 -4 -18 -2 -18 4 0 6 -7 8 -16 5 -14 -5 -15
-4 -4 9 10 12 10 15 -4 15 -9 0 -15 3 -14 8 2 4 -1 8 -6 9 -5 1 -13 7 -17 15
-7 10 -12 11 -29 1 -25 -16 -27 -16 -34 3 -3 8 -2 12 4 9 5 -3 18 -1 27 4 12
7 13 10 5 11 -8 0 -25 9 -39 20 -14 11 -29 18 -33 15 -4 -3 -13 2 -20 10 -7 8
-20 15 -29 15 -9 0 -26 7 -37 15 -12 8 -24 11 -28 8 -3 -3 -6 0 -6 7 0 11 -3
11 -12 2 -9 -9 -14 -7 -23 5 -6 8 -22 17 -36 18 -39 4 -40 5 -35 14 3 5 -10 8
-30 7 -20 -1 -38 3 -40 9 -3 6 -17 12 -32 14 -46 5 -56 7 -87 20 -16 7 -37 10
-47 8 -10 -3 -21 -1 -24 4 -3 5 -10 7 -15 4 -5 -4 -9 -2 -9 3 0 5 -6 9 -12 10
-60 4 -110 12 -120 19 -7 4 -35 9 -63 10 -27 2 -57 6 -65 9 -24 11 -41 14
-105 18 -33 2 -71 7 -85 11 -14 4 -65 9 -115 11 -108 5 -115 6 -115 13 0 4
-17 15 -37 26 -21 11 -43 24 -50 30 -7 5 -19 16 -28 23 -8 7 -15 10 -15 6 0
-4 -9 3 -19 15 -11 13 -25 20 -31 16 -5 -3 -13 0 -16 8 -3 8 -15 17 -26 20
-13 4 -17 10 -12 18 4 8 3 10 -4 5 -13 -8 -49 10 -74 37 -9 11 -21 16 -27 13
-5 -4 -14 2 -20 11 -6 10 -11 14 -11 9 0 -5 -10 -1 -22 9 -13 10 -8 4 10 -14
18 -18 37 -29 44 -25 8 5 9 2 5 -9 -3 -9 -3 -16 1 -16 21 3 32 -2 26 -13 -4
-6 -3 -8 3 -5 6 4 19 -3 29 -14 10 -11 23 -18 28 -16 13 4 57 -39 48 -47 -3
-3 7 -6 22 -6 16 0 25 -4 21 -10 -3 -5 3 -10 15 -10 12 0 19 -4 16 -9 -3 -5 4
-11 15 -14 12 -3 18 -10 14 -16 -3 -7 2 -11 15 -11 11 0 23 -7 26 -15 4 -8 15
-15 26 -15 10 0 17 -4 13 -9 -3 -6 3 -10 12 -10 10 -1 50 -2 90 -4 39 -1 75
-5 78 -9 4 -4 16 -3 26 3 14 7 17 6 14 -3 -4 -10 17 -13 89 -13 52 0 92 -3 89
-7 -4 -7 12 -12 30 -9 4 0 7 -2 7 -7 0 -4 28 -8 61 -8 34 -1 64 -6 68 -11 3
-5 18 -9 34 -10 77 -2 88 -4 83 -11 -3 -5 0 -9 7 -9 7 -1 33 -2 59 -4 26 -1
45 -6 42 -11 -3 -4 5 -9 18 -10 13 -1 30 -2 38 -3 8 -1 26 -7 39 -14 13 -7 39
-13 57 -14 20 -1 34 -6 34 -13 0 -8 11 -11 30 -9 32 4 43 -4 31 -24 -5 -7 -11
-9 -14 -4 -3 5 -20 8 -36 7 -17 -1 -29 2 -26 6 7 11 -14 17 -47 16 -16 -1 -28
2 -28 5 0 11 -40 23 -78 23 -18 1 -36 6 -40 12 -4 6 -28 11 -53 11 -25 0 -56
6 -69 13 -12 7 -44 13 -69 15 -25 1 -57 6 -71 10 -28 9 -68 13 -123 14 -21 1
-36 4 -34 9 3 4 -7 8 -21 9 -15 1 -61 5 -102 7 -72 6 -125 12 -125 16 0 1 -24
4 -54 5 -53 3 -99 19 -113 40 -4 5 -11 10 -15 10 -5 0 -15 6 -23 13 -8 7 -36
28 -62 46 -26 18 -44 37 -40 41 4 5 -1 5 -10 2 -11 -4 -19 0 -23 14 -4 10 -15
19 -26 19 -10 0 -19 5 -19 10 0 6 -7 10 -16 10 -8 0 -12 5 -9 10 3 6 -1 10 -9
10 -8 0 -19 8 -25 18 -5 9 -12 16 -15 15 -15 -7 -26 -2 -26 12 0 8 -6 14 -12
13 -7 -2 -12 3 -10 11 2 9 -4 12 -18 8 -13 -3 -20 0 -20 8 0 8 -5 17 -12 21
-7 5 -8 3 -3 -7 7 -12 6 -12 -7 -1 -13 10 -17 10 -22 -3z m1607 -504 c-2 -6 2
-12 7 -12 6 -1 15 -2 22 -3 6 0 13 -6 15 -13 5 -15 -38 -8 -47 8 -4 6 -20 9
-35 7 -18 -2 -30 2 -33 11 -3 10 1 12 17 8 11 -3 24 -1 27 4 8 13 30 5 27 -10z
m112 -50 c-8 -14 -32 -14 -41 1 -5 8 0 9 14 6 13 -4 22 -1 22 5 0 6 3 8 6 4 3
-3 3 -10 -1 -16z"/>
<path d="M2259 4946 c-6 -9 -5 -36 1 -36 5 0 12 -9 15 -20 8 -25 73 -93 98
-103 9 -3 17 -11 17 -17 0 -6 5 -8 10 -5 6 3 10 0 10 -7 0 -8 18 -27 40 -44
22 -16 40 -32 40 -36 0 -5 6 -8 13 -8 6 0 31 -17 53 -38 23 -20 54 -46 68 -56
15 -11 37 -29 50 -40 53 -48 77 -66 87 -66 5 0 7 -4 4 -10 -7 -11 -5 -11 95
-15 36 -1 65 -4 65 -5 0 -4 46 -10 125 -15 130 -9 158 -13 171 -21 7 -4 44 -9
83 -11 94 -5 106 -6 106 -13 0 -4 23 -7 52 -9 68 -3 71 -4 86 -21 8 -8 11 -9
7 -2 -3 6 -1 12 4 12 6 0 11 -3 11 -8 0 -4 17 -7 38 -7 20 1 43 -4 51 -9 7 -6
32 -12 55 -13 22 -2 48 -6 56 -9 26 -12 44 -16 82 -17 20 0 36 -5 35 -11 -1
-6 15 -11 35 -12 20 0 43 -5 50 -11 7 -6 29 -13 48 -16 19 -2 34 -8 33 -13 -1
-6 8 -11 20 -12 38 -4 52 -7 67 -17 8 -5 21 -10 28 -11 8 -2 21 -6 30 -10 23
-10 29 -11 53 -13 11 0 17 -5 14 -11 -4 -6 5 -10 20 -10 15 0 24 -4 20 -10 -3
-5 -1 -10 4 -10 18 0 25 -3 74 -32 26 -15 55 -28 64 -28 9 0 13 -6 9 -15 -3
-10 -1 -15 7 -14 19 3 47 -12 47 -25 0 -7 -6 -13 -14 -13 -8 0 -12 6 -9 14 3
9 -3 13 -21 13 -14 0 -26 4 -26 9 0 5 -9 11 -21 14 -13 4 -18 10 -13 18 4 8 3
10 -4 5 -7 -4 -32 2 -57 13 -25 11 -45 17 -45 14 0 -4 -7 2 -16 13 -8 10 -12
13 -9 5 6 -9 1 -9 -17 3 -14 9 -28 13 -31 10 -4 -4 -9 0 -13 9 -3 9 -12 13
-20 10 -8 -3 -20 0 -28 6 -7 6 -16 8 -19 4 -4 -3 -7 -2 -7 3 0 5 -8 11 -17 12
-31 3 -48 8 -68 19 -11 5 -30 9 -42 8 -13 -1 -23 3 -23 10 0 6 -19 12 -42 14
-24 1 -45 6 -46 12 -2 5 -8 7 -13 3 -5 -3 -9 -2 -9 3 0 4 -15 7 -32 7 -18 -1
-37 2 -43 6 -5 4 -35 12 -65 18 -30 6 -66 13 -80 16 -24 6 -90 16 -117 18 -7
1 -13 4 -13 8 0 3 -24 7 -54 8 -62 1 -79 4 -87 15 -3 4 -41 9 -85 10 -44 2
-86 7 -93 11 -13 8 -82 14 -179 15 -29 1 -51 4 -49 9 3 4 -15 7 -39 6 -25 0
-47 2 -49 6 -2 3 -35 5 -73 4 -58 -3 -72 0 -93 19 -13 12 -49 42 -79 67 -30
25 -60 49 -66 55 -6 5 -30 26 -53 45 -169 139 -301 270 -301 299 0 11 -5 21
-11 21 -5 0 -8 4 -5 8 4 7 -28 8 -44 2 -3 -1 -8 -2 -12 -2 -3 1 -12 -6 -20
-15 -11 -14 -11 -16 2 -8 27 17 38 13 50 -16 7 -15 10 -30 9 -31 -2 -2 10 -18
28 -35 17 -17 29 -34 26 -37 -4 -3 -1 -6 5 -6 7 0 34 -22 62 -50 27 -27 50
-47 50 -43 0 3 13 -7 28 -23 37 -37 130 -116 151 -128 9 -5 33 -26 53 -47 21
-22 42 -39 48 -39 5 0 10 -3 10 -7 0 -5 16 -21 36 -37 26 -20 48 -29 80 -30
24 0 44 -4 44 -8 0 -3 8 -5 18 -4 9 2 29 0 45 -5 16 -5 27 -4 27 2 0 6 5 7 11
3 6 -3 50 -8 97 -10 108 -5 112 -6 112 -13 0 -4 10 -6 23 -6 28 2 232 -21 232
-25 0 -1 18 -4 40 -6 39 -3 80 -11 80 -14 0 -2 20 -4 45 -6 50 -4 67 -7 93
-19 10 -4 34 -9 55 -10 20 -1 39 -4 42 -5 3 -1 8 -2 13 -1 4 0 7 -2 7 -7 0 -4
18 -8 39 -10 22 -1 54 -8 73 -15 18 -7 42 -12 53 -12 11 0 22 -3 25 -7 3 -4
19 -10 35 -13 48 -10 49 -10 61 -17 6 -4 26 -10 44 -13 18 -3 42 -11 52 -16
11 -6 29 -8 40 -6 14 4 18 2 14 -9 -3 -8 1 -14 10 -14 9 0 31 -7 50 -16 19 -9
37 -14 40 -11 4 3 15 -3 26 -13 11 -10 29 -17 39 -15 13 3 19 -2 19 -15 0 -13
5 -17 20 -13 12 3 28 -1 38 -9 9 -9 24 -18 32 -21 8 -3 3 -6 -13 -6 -16 -1
-26 4 -25 11 3 14 -70 19 -78 6 -3 -4 0 -8 5 -8 7 0 8 -6 2 -17 -5 -10 -17
-38 -27 -63 -10 -25 -21 -47 -24 -50 -10 -10 -41 -70 -36 -70 3 0 -2 -8 -11
-18 -31 -32 -63 -72 -63 -78 0 -3 -16 -22 -35 -42 -33 -35 -47 -82 -25 -82 14
0 108 99 115 121 4 11 11 19 16 19 5 0 9 7 9 15 0 8 4 15 9 15 8 0 26 29 59
97 5 10 15 29 22 43 7 13 16 35 19 49 7 23 41 40 41 20 0 -5 3 -8 8 -8 20 3
33 -2 27 -11 -4 -6 -3 -9 2 -8 17 4 53 -14 47 -24 -5 -7 -1 -9 9 -5 9 3 20 0
24 -6 5 -7 29 -27 55 -44 40 -27 49 -29 59 -17 8 10 8 14 0 14 -6 0 -11 7 -11
15 0 8 -7 15 -16 15 -8 0 -12 5 -9 10 3 6 2 10 -3 10 -5 0 -12 10 -15 22 -5
19 -8 20 -24 7 -16 -13 -17 -12 -4 4 12 15 11 20 -9 37 -13 11 -26 20 -30 20
-4 0 -10 9 -13 21 -5 20 -5 20 16 2 18 -15 17 -13 -3 13 -14 18 -29 31 -35 30
-5 0 -9 4 -8 10 1 7 -9 15 -23 18 -22 6 -24 9 -13 22 11 14 10 16 -11 13 -14
-2 -25 1 -25 6 0 6 3 9 6 8 3 -1 6 4 6 12 0 8 -3 13 -6 12 -3 -1 -20 12 -36
29 -35 37 -45 41 -56 22 -15 -23 -10 -29 20 -25 22 4 28 2 24 -9 -3 -8 -10
-11 -16 -7 -5 3 -7 1 -4 -5 4 -5 16 -8 27 -5 11 3 20 0 20 -6 0 -16 -35 -13
-50 4 -7 8 -16 13 -20 10 -5 -3 -10 0 -12 7 -2 6 -15 13 -29 15 -13 2 -28 9
-34 17 -5 7 -18 12 -28 10 -10 -1 -20 3 -23 10 -2 6 -16 13 -31 14 -14 1 -31
6 -37 11 -6 5 -26 12 -43 16 -18 3 -33 10 -33 14 0 3 -11 8 -25 9 -37 3 -49 6
-56 16 -4 4 -21 10 -39 12 -17 2 -37 7 -43 11 -6 4 -27 8 -46 10 -20 2 -38 7
-41 11 -5 7 -24 11 -75 16 -17 2 -39 7 -50 13 -11 5 -40 11 -65 12 -27 1 -50
9 -57 19 -11 13 -13 13 -13 1 0 -8 -3 -10 -8 -4 -4 6 -27 11 -52 12 -49 2 -70
5 -85 14 -5 4 -39 7 -74 8 -35 1 -69 5 -75 9 -16 10 -34 13 -111 17 -38 2 -83
6 -100 10 -16 3 -81 8 -143 11 -87 4 -117 9 -131 22 -10 9 -35 31 -56 47 -22
17 -54 42 -71 58 -17 15 -37 27 -43 27 -7 0 -9 5 -6 10 3 6 1 10 -4 10 -6 0
-20 9 -31 20 -11 11 -20 17 -20 14 0 -3 -6 1 -13 8 -8 7 -40 36 -73 63 -109
93 -155 140 -157 162 -1 14 -9 23 -24 26 -13 2 -23 4 -24 3z m2251 -986 c0 -5
-2 -10 -4 -10 -3 0 -8 5 -11 10 -3 6 -1 10 4 10 6 0 11 -4 11 -10z"/>
<path d="M2620 4940 c0 -5 9 -10 20 -10 11 0 20 5 20 10 0 6 -9 10 -20 10 -11
0 -20 -4 -20 -10z"/>
<path d="M2733 4938 c-2 -5 7 -8 21 -8 14 0 25 -5 24 -11 -4 -17 33 -20 54 -4
11 7 16 15 11 17 -4 3 -3 3 4 2 7 -2 15 0 17 5 9 14 -28 9 -46 -6 -12 -11 -18
-11 -24 -2 -4 8 -3 10 4 5 7 -4 12 -3 12 2 0 11 -70 10 -77 0z"/>
<path d="M2878 4934 c-16 -8 -28 -19 -28 -25 0 -6 -5 -7 -11 -3 -7 4 -10 1 -7
-7 3 -8 10 -14 17 -14 6 0 16 -6 20 -14 7 -11 10 -9 16 8 3 11 11 21 18 21 8
0 8 -3 -1 -12 -7 -7 -12 -15 -12 -19 0 -13 33 -19 45 -9 9 8 15 8 20 0 3 -5
-1 -10 -9 -10 -22 0 -20 -20 2 -22 45 -3 57 -1 54 12 -3 11 0 11 12 0 12 -9
16 -10 16 0 0 7 7 10 15 6 8 -3 15 0 15 6 0 6 6 5 17 -3 13 -11 15 -11 9 -1
-6 10 -3 13 10 11 11 -2 24 0 30 3 6 4 11 1 11 -7 0 -8 -2 -13 -4 -11 -3 2
-15 -1 -27 -8 -13 -6 -40 -11 -60 -11 -24 1 -36 -3 -36 -12 0 -7 3 -12 8 -12
4 1 9 1 12 0 15 -6 118 -4 128 3 7 4 12 2 12 -4 0 -6 12 -2 26 9 28 22 64 28
64 12 0 -6 -4 -13 -10 -16 -5 -3 -10 -1 -10 6 0 7 -6 5 -13 -6 -9 -12 -19 -15
-28 -10 -12 8 -12 6 0 -8 7 -9 17 -14 22 -11 5 3 24 1 43 -4 29 -8 36 -7 42 6
4 10 7 19 6 22 0 3 8 7 19 7 10 1 19 -2 19 -7 0 -5 6 -7 14 -4 7 3 16 -2 19
-10 6 -14 38 -17 37 -3 0 4 -2 6 -5 5 -2 -2 -10 6 -18 16 -15 21 -62 28 -89
14 -12 -6 -18 -5 -18 2 0 6 -4 9 -9 5 -15 -9 -24 14 -11 30 9 11 7 13 -7 10
-10 -1 -17 -8 -15 -16 2 -9 0 -10 -11 -1 -8 7 -17 9 -20 5 -4 -3 -7 2 -7 13 0
13 -7 20 -20 21 -11 1 -20 -2 -20 -8 0 -5 -5 -9 -11 -9 -5 0 -8 4 -5 8 3 5
-19 16 -49 24 -30 8 -55 11 -55 6 0 -5 -6 -6 -12 -1 -22 13 -40 13 -29 -1 7
-8 5 -12 -8 -12 -12 0 -17 6 -14 16 3 11 -3 16 -21 16 -13 0 -22 -4 -20 -8 3
-4 0 -8 -5 -8 -6 0 -11 6 -11 13 0 8 -4 7 -10 -3 -9 -13 -10 -13 -11 0 -1 8
-1 18 0 23 1 9 1 9 -31 -9z"/>
<path d="M2656 4921 c-3 -5 8 -14 24 -21 17 -7 30 -17 30 -22 0 -5 9 -6 20 -3
14 5 20 2 20 -9 0 -15 17 -21 49 -17 7 2 11 -2 8 -6 -3 -5 12 -20 34 -33 21
-14 42 -32 44 -41 7 -21 67 -29 84 -12 8 9 8 13 1 13 -6 0 -9 4 -5 9 7 12 -9
22 -42 26 -14 1 -28 7 -32 13 -3 5 -15 12 -26 14 -11 2 -19 10 -17 17 1 7 -2
9 -9 5 -7 -4 -18 1 -26 11 -7 11 -13 15 -13 11 0 -5 -8 -2 -17 5 -14 12 -16
12 -9 -1 4 -8 -1 -6 -11 6 -10 11 -27 20 -37 18 -10 -1 -16 2 -13 10 6 14 -49
21 -57 7z"/>
<path d="M1945 4850 c-3 -5 -4 -14 0 -19 6 -11 45 -10 45 0 0 4 8 5 18 2 9 -2
28 -26 41 -52 13 -27 37 -62 52 -79 16 -17 29 -35 30 -39 0 -4 20 -24 43 -43
24 -19 41 -38 39 -42 -2 -5 0 -8 6 -8 5 0 37 -26 69 -57 52 -50 131 -123 231
-213 90 -80 111 -103 111 -120 0 -27 28 -40 62 -28 15 6 25 14 22 19 -3 5 0 9
6 9 6 0 3 11 -6 25 -9 14 -24 25 -32 23 -9 -2 -30 11 -47 27 -18 17 -56 50
-85 75 -30 25 -71 62 -92 82 -21 21 -38 35 -38 32 0 -2 -13 8 -28 23 -16 15
-62 60 -103 99 -145 139 -228 242 -220 277 1 4 -16 7 -36 6 -21 -1 -48 1 -60
5 -12 4 -24 2 -28 -4z m25 -10 c0 -5 -2 -10 -4 -10 -3 0 -8 5 -11 10 -3 6 -1
10 4 10 6 0 11 -4 11 -10z"/>
<path d="M1910 4830 c-13 -8 -12 -10 3 -10 9 0 17 5 17 10 0 12 -1 12 -20 0z"/>
<path d="M1842 4819 c-13 -5 -28 -7 -32 -4 -14 9 -17 -19 -4 -32 16 -16 28
-17 18 -1 -5 7 -3 8 6 3 8 -5 34 -9 59 -10 61 -3 59 -2 67 -27 6 -21 52 -93
79 -126 18 -22 275 -280 275 -276 0 2 32 -27 70 -65 39 -37 70 -75 70 -83 0
-20 32 -48 56 -48 30 0 57 36 44 60 -6 11 -17 20 -25 20 -8 0 -17 0 -20 0 -3
0 -13 8 -23 18 -11 9 -57 51 -103 92 -108 97 -253 242 -304 303 -22 27 -46 55
-52 62 -7 7 -13 20 -13 28 0 9 -5 17 -11 19 -5 2 -11 10 -12 18 -4 26 -16 38
-35 35 -9 -2 -17 -4 -17 -5 0 -1 -8 -3 -17 -5 -9 -2 -19 4 -22 12 -5 12 -9 13
-21 3 -13 -11 -14 -10 -9 4 7 18 7 18 -24 5z"/>
<path d="M2179 4803 c-4 -23 5 -47 24 -70 43 -51 131 -134 243 -228 26 -22 57
-50 70 -62 13 -13 25 -23 28 -23 5 0 56 -43 97 -82 16 -15 29 -25 29 -23 0 2
11 -6 25 -19 20 -19 38 -24 85 -25 93 -2 94 -2 110 -8 24 -9 59 -13 155 -16
50 -2 95 -6 101 -9 5 -4 46 -9 89 -13 44 -3 98 -11 120 -17 22 -6 64 -12 92
-14 29 -1 58 -6 65 -10 6 -4 32 -9 57 -11 75 -6 86 -8 92 -16 3 -4 28 -9 55
-10 27 -1 52 -5 55 -10 3 -4 25 -10 50 -13 24 -4 46 -9 49 -13 6 -7 27 -13 60
-16 14 -1 35 -7 47 -13 12 -7 33 -12 47 -12 13 0 26 -5 28 -10 2 -6 14 -12 28
-14 14 -1 38 -8 53 -14 16 -7 32 -12 37 -12 4 0 21 -7 36 -15 16 -8 37 -15 47
-15 10 0 16 -3 14 -7 -3 -5 10 -9 29 -10 69 -6 18 44 -56 53 -14 2 -26 8 -28
14 -2 5 -10 10 -18 10 -9 0 -25 5 -37 12 -12 7 -33 14 -46 16 -14 2 -33 8 -44
13 -10 6 -30 13 -45 15 -14 3 -30 8 -36 12 -6 4 -24 7 -40 8 -15 1 -31 5 -35
10 -6 10 -17 13 -60 18 -16 2 -34 7 -42 11 -7 5 -29 10 -49 12 -19 2 -50 8
-68 14 -18 6 -53 12 -76 14 -24 1 -49 6 -56 10 -8 5 -43 10 -79 13 -36 2 -68
8 -72 13 -3 5 -36 11 -75 14 -38 2 -82 7 -99 10 -16 3 -61 8 -100 10 -38 3
-99 10 -134 16 -35 7 -108 12 -163 13 -92 2 -102 4 -119 25 -11 13 -19 20 -19
16 0 -8 -122 94 -150 125 -8 9 -23 21 -32 26 -16 9 -123 102 -185 161 -18 17
-33 29 -33 27 0 -2 -17 15 -37 38 -21 24 -42 46 -46 49 -5 3 -8 9 -8 13 3 20
-1 26 -14 26 -8 0 -16 -3 -16 -7z"/>
<path d="M1764 4792 c6 -10 1 -11 -18 -6 -18 4 -26 2 -26 -7 0 -10 -3 -10 -8
-3 -5 8 -13 5 -26 -7 -19 -19 -19 -19 18 -19 33 0 37 -2 26 -15 -10 -13 -17
-12 -52 6 -22 11 -37 16 -33 10 3 -6 1 -11 -4 -11 -6 0 -11 6 -11 13 0 9 -2 9
-9 -1 -4 -7 -14 -14 -22 -15 -8 -2 -25 -10 -38 -19 -20 -14 -22 -20 -11 -32 7
-9 16 -13 21 -10 8 5 13 -10 10 -30 -1 -5 6 -5 16 -1 10 4 42 7 71 7 28 0 52
4 52 9 0 5 12 9 26 9 14 0 23 -4 20 -9 -7 -10 77 -144 129 -206 41 -50 94
-106 196 -210 33 -34 61 -72 64 -85 9 -45 45 -50 86 -11 13 13 18 21 11 16 -9
-5 -12 -2 -10 10 2 12 -7 21 -27 28 -28 10 -199 175 -272 263 -18 22 -44 53
-58 69 -24 29 -29 40 -26 58 1 5 -3 6 -9 2 -9 -5 -12 1 -9 22 0 3 -6 10 -15
15 -9 5 -16 20 -16 33 0 16 -6 25 -15 25 -8 0 -15 4 -15 8 0 16 -44 10 -57 -8
-11 -16 -55 -21 -83 -10 -3 1 -9 2 -14 1 -5 -1 -4 4 2 12 7 8 26 12 46 11 20
-2 41 2 48 9 17 17 120 16 126 -1 2 -6 7 -10 12 -7 4 2 10 -8 13 -23 3 -15 15
-37 27 -49 11 -13 17 -23 13 -23 -4 0 1 -7 11 -15 11 -8 17 -15 13 -15 -16 0
220 -241 482 -493 33 -33 60 -62 59 -65 -1 -4 1 -16 5 -28 5 -15 16 -21 43
-22 28 -1 37 3 46 24 9 20 9 28 -4 40 -8 8 -23 16 -32 18 -10 1 -22 9 -27 17
-5 8 -9 11 -9 8 0 -3 -30 23 -67 57 -38 35 -71 64 -75 64 -5 0 -8 7 -8 15 0 8
-5 15 -10 15 -6 0 -50 38 -98 85 -48 47 -90 85 -94 85 -5 0 -8 4 -8 10 0 5
-19 29 -43 52 -65 64 -167 189 -167 205 0 7 -4 13 -8 13 -5 0 -14 16 -22 35
-8 19 -19 35 -24 36 -6 0 -28 1 -48 1 -21 0 -36 4 -33 8 2 4 -5 16 -17 26 -12
11 -18 13 -14 6z m-134 -76 c-15 -15 -44 -17 -31 -2 6 7 18 13 26 13 11 0 12
-4 5 -11z"/>
<path d="M3590 4731 c0 -11 19 -26 43 -34 14 -5 18 -3 15 11 -2 10 -11 16 -21
14 -9 -2 -17 2 -17 8 0 5 -4 10 -10 10 -5 0 -10 -4 -10 -9z"/>
<path d="M1492 4690 c2 -8 -4 -15 -12 -15 -16 0 -56 -36 -53 -46 1 -3 -9 -5
-23 -3 -13 1 -22 -2 -18 -7 3 -5 11 -6 17 -2 7 4 6 0 -2 -10 -7 -9 -19 -17
-25 -17 -7 0 -6 4 2 9 11 7 11 9 -2 14 -11 4 -16 1 -17 -11 0 -11 -2 -13 -6
-4 -4 10 -9 7 -20 -8 -8 -12 -21 -19 -29 -16 -15 6 -19 -9 -5 -18 5 -3 7 -16
4 -29 -3 -14 -2 -18 4 -10 5 7 19 11 30 9 27 -6 53 21 30 30 -9 3 -20 3 -26 0
-5 -4 -13 -1 -17 5 -5 8 -3 9 6 4 8 -5 11 -4 6 3 -3 6 -2 13 4 17 5 3 10 2 10
-4 0 -6 7 -8 15 -4 10 3 15 0 13 -8 -2 -8 4 -13 15 -13 9 1 17 -1 17 -5 0 -3
11 -6 25 -6 14 0 25 3 25 7 0 4 8 4 18 1 15 -6 15 -5 3 10 -8 11 -21 15 -32
12 -11 -4 -19 -2 -19 4 0 6 -8 7 -17 4 -15 -6 -15 -5 -3 8 16 18 52 18 58 1 2
-7 9 -9 14 -6 6 4 8 2 5 -3 -5 -7 12 -10 51 -8 31 2 59 4 61 4 2 1 -2 8 -9 16
-15 18 -34 20 -24 3 6 -10 4 -10 -7 -3 -8 6 -26 10 -41 9 -18 -1 -28 4 -28 12
0 8 -11 14 -26 14 -14 0 -23 4 -19 10 9 14 34 12 51 -4 8 -8 26 -13 42 -11 17
2 35 -5 49 -18 20 -17 25 -18 40 -6 9 8 14 9 10 2 -5 -7 -1 -9 11 -6 13 3 23
-6 38 -36 10 -23 23 -41 27 -41 5 0 6 -4 3 -8 -3 -5 4 -18 14 -30 11 -12 20
-25 20 -29 0 -4 13 -22 28 -39 15 -17 50 -57 77 -90 28 -32 71 -81 97 -109 27
-27 48 -53 48 -57 0 -5 7 -8 15 -8 8 0 15 -4 15 -8 0 -4 27 -36 60 -71 33 -35
57 -68 54 -73 -8 -12 23 -47 39 -44 7 1 22 7 34 14 36 20 18 81 -25 82 -23 0
-280 266 -363 375 -13 17 -26 32 -29 35 -10 10 -57 86 -78 127 l-22 42 -55 -2
c-54 -3 -84 10 -67 28 4 5 2 5 -5 1 -7 -4 -19 4 -29 19 -9 14 -19 23 -22 20
-3 -3 3 -14 13 -25 10 -11 15 -20 11 -20 -4 0 -18 12 -32 28 -13 15 -23 20
-22 12z"/>
<path d="M3710 4689 c0 -5 5 -7 10 -4 6 3 10 8 10 11 0 2 -4 4 -10 4 -5 0 -10
-5 -10 -11z"/>
<path d="M3660 4640 c-9 -16 -8 -20 5 -20 9 0 18 -6 21 -13 3 -10 18 -13 43
-10 24 2 44 -1 52 -10 8 -7 29 -12 47 -10 20 2 31 -1 27 -7 -6 -10 1 -14 48
-24 15 -4 25 -11 22 -15 -3 -5 3 -7 13 -4 9 2 31 -3 47 -11 43 -23 51 -20 18
8 -39 32 -73 49 -73 36 0 -5 -4 -10 -10 -10 -5 0 -9 5 -7 12 1 7 -7 12 -19 13
-11 0 -29 6 -38 14 -10 8 -31 15 -48 16 -16 1 -33 7 -38 15 -4 7 -15 10 -24 7
-8 -3 -21 0 -28 6 -25 25 -47 27 -58 7z"/>
<path d="M1531 4549 c-11 -5 -21 -6 -21 -2 0 3 -8 -1 -17 -9 -10 -8 -34 -14
-55 -12 -21 1 -38 -2 -38 -7 0 -5 -5 -9 -11 -9 -6 0 -8 7 -5 16 3 9 2 12 -5 9
-6 -4 -8 -13 -5 -21 4 -11 -3 -13 -30 -9 -25 3 -33 1 -27 -8 4 -7 -1 -6 -11 2
-9 8 -15 22 -13 31 7 26 -40 19 -59 -8 -8 -12 -20 -19 -26 -16 -7 5 -8 2 -3
-6 6 -10 4 -12 -9 -7 -12 5 -16 3 -14 -5 3 -7 10 -14 16 -14 7 -1 17 -2 22 -3
5 0 9 -6 7 -12 -1 -6 15 -12 39 -13 30 -1 40 3 37 12 -3 7 3 12 13 13 11 1 33
2 49 3 17 1 29 6 28 12 -1 6 16 11 40 12 23 0 51 3 62 5 11 3 24 6 28 6 5 1 6
5 3 9 -7 11 25 9 45 -4 9 -5 23 -22 32 -39 8 -16 23 -43 31 -60 23 -42 153
-205 159 -199 3 3 13 -17 22 -45 18 -55 30 -61 70 -35 40 26 32 60 -16 69 -12
3 -22 6 -23 7 -1 2 -21 28 -46 58 -25 30 -48 60 -52 65 -54 69 -68 90 -68 101
0 8 -4 14 -8 14 -4 0 -15 12 -24 28 -16 26 -18 33 -18 51 0 19 -65 32 -99 20z
m-247 -52 c10 -4 16 -10 12 -14 -9 -9 -55 -10 -50 -1 3 4 0 8 -5 8 -6 0 -11 5
-11 11 0 5 5 7 10 4 6 -3 10 0 10 7 0 9 3 9 8 2 4 -6 16 -14 26 -17z"/>
<path d="M4024 4482 c4 -3 14 -7 22 -8 9 -1 13 0 10 4 -4 3 -14 7 -22 8 -9 1
-13 0 -10 -4z"/>
<path d="M1147 4469 c-9 -6 -17 -15 -17 -22 0 -8 3 -8 9 2 7 10 10 10 16 1 10
-16 -16 -32 -32 -19 -9 8 -14 4 -19 -16 -4 -18 -9 -23 -14 -14 -6 9 -12 8 -25
-4 -9 -10 -25 -22 -35 -27 -12 -7 -17 -17 -13 -32 4 -18 2 -20 -5 -9 -9 12
-13 13 -26 2 -23 -19 -3 -39 34 -33 23 3 30 0 30 -12 0 -10 -6 -13 -15 -10
-19 8 -51 -16 -35 -26 13 -8 60 -1 60 9 0 4 6 8 13 9 21 2 41 8 62 18 11 6 34
10 52 9 17 0 30 3 27 7 -6 9 64 28 81 22 7 -3 16 0 20 5 3 6 11 9 16 6 5 -4 9
-3 9 2 0 4 13 8 30 8 20 1 32 -5 36 -17 3 -10 10 -18 15 -18 5 0 9 -7 9 -15 0
-19 18 -51 48 -84 12 -14 22 -31 22 -37 0 -6 6 -17 14 -23 8 -7 12 -20 9 -29
-2 -10 4 -25 14 -34 17 -15 20 -15 40 1 29 24 42 71 18 71 -10 0 -13 5 -9 12
5 7 3 8 -5 4 -12 -8 -51 19 -51 35 0 5 -8 18 -17 28 -9 11 -31 46 -48 78 l-31
58 -66 0 c-46 0 -64 -3 -61 -11 3 -8 -10 -11 -41 -10 -30 1 -47 -3 -51 -12 -3
-7 -9 -10 -15 -7 -5 3 -10 2 -10 -3 0 -5 -10 -8 -22 -7 -13 1 -33 -5 -45 -13
-13 -8 -23 -11 -23 -8 0 4 -8 2 -18 -3 -14 -7 -22 -5 -35 9 -15 18 -14 19 18
16 23 -3 36 1 39 11 4 9 14 13 26 10 11 -3 23 -1 26 4 3 5 11 6 17 3 8 -5 8
-3 0 6 -18 19 -56 23 -68 7 -17 -23 -51 -27 -52 -6 -1 16 3 18 23 13 20 -5 26
-2 31 15 l5 22 34 -20 c33 -20 100 -22 113 -4 3 4 20 9 36 9 47 3 47 3 41 19
-3 8 -1 15 4 15 6 0 10 -5 10 -10 0 -7 7 -7 18 -2 9 4 36 8 60 8 23 -1 42 4
42 9 0 6 5 3 10 -5 5 -8 10 -11 10 -6 0 5 14 -18 31 -50 32 -60 76 -124 117
-169 6 -7 12 -16 12 -19 0 -3 12 -18 28 -34 15 -16 50 -56 77 -87 28 -32 55
-63 60 -69 6 -6 11 -22 12 -35 2 -30 7 -34 43 -37 26 -2 46 16 42 39 -1 4 3 7
10 7 6 0 3 9 -7 20 -10 11 -24 20 -31 20 -7 0 -29 17 -48 38 -19 20 -53 57
-76 81 -23 24 -53 60 -68 80 -15 20 -33 40 -39 44 -7 4 -13 15 -13 22 0 8 -5
15 -10 15 -6 0 -14 8 -17 18 -4 9 -16 31 -28 47 -12 17 -30 48 -41 70 -10 22
-23 43 -28 47 -13 9 -48 1 -58 -14 -6 -10 -8 -9 -8 2 0 9 -3 11 -8 5 -4 -5
-27 -11 -50 -12 -24 -1 -50 -7 -58 -14 -7 -6 -32 -12 -55 -13 -22 -2 -44 -7
-47 -13 -4 -5 -17 -9 -29 -8 -13 1 -23 -2 -23 -7 0 -5 -6 -3 -14 4 -18 16 1
29 32 23 12 -2 24 0 27 4 7 13 -17 29 -38 26 -9 -2 -15 1 -12 5 9 14 -9 19
-28 9z"/>
<path d="M947 4293 c4 -10 2 -14 -4 -10 -6 4 -16 0 -23 -8 -9 -11 -9 -15 -1
-15 7 0 9 -5 5 -12 -4 -7 -3 -8 4 -4 7 4 12 2 12 -3 0 -6 -12 -11 -26 -11 -18
0 -28 -6 -31 -21 -4 -16 -8 -18 -14 -7 -7 10 -11 7 -15 -10 -4 -14 -12 -21
-20 -18 -8 3 -14 1 -14 -3 0 -5 6 -11 12 -13 13 -5 28 4 56 34 10 11 18 14 23
7 4 -7 12 -5 22 5 9 9 27 17 41 18 27 2 33 12 16 23 -8 5 -8 11 0 20 11 13 0
27 -32 38 -13 4 -15 2 -11 -10z m31 -30 c-15 -14 -48 -8 -48 9 0 5 4 7 8 4 4
-2 14 -1 22 4 21 13 34 0 18 -17z"/>
<path d="M2775 4169 c-11 -17 0 -21 67 -24 35 -2 74 -6 88 -10 22 -5 151 -15
233 -18 15 0 27 -4 27 -7 0 -8 -2 -7 109 -14 47 -3 87 -9 90 -13 3 -5 33 -10
66 -11 33 -2 62 -8 63 -13 2 -5 8 -7 13 -3 5 3 15 2 21 -2 7 -5 31 -9 54 -9
22 -1 46 -5 53 -9 7 -5 34 -10 59 -13 26 -3 55 -9 65 -14 9 -6 36 -12 59 -14
23 -3 46 -9 52 -15 5 -5 25 -10 43 -10 18 0 33 -5 33 -11 0 -5 4 -8 9 -4 5 3
12 1 15 -3 3 -5 15 -8 28 -7 13 1 29 -5 37 -12 8 -8 22 -12 32 -10 10 3 23 -1
30 -9 6 -8 14 -12 18 -10 3 2 23 -4 44 -14 33 -16 71 -19 84 -6 5 5 -76 44
-102 48 -11 2 -22 6 -25 10 -3 4 -18 9 -34 12 -15 3 -33 9 -39 14 -7 4 -19 8
-27 7 -8 -1 -28 5 -44 13 -26 12 -53 20 -93 24 -7 1 -13 5 -13 9 0 4 -17 7
-37 7 -21 0 -39 5 -41 11 -2 6 -19 11 -38 11 -20 0 -44 5 -54 10 -11 6 -45 13
-76 15 -31 3 -62 9 -68 12 -13 9 -28 12 -81 18 -22 2 -51 7 -65 10 -14 4 -50
9 -80 11 -57 3 -74 6 -100 17 -8 4 -53 9 -100 11 -47 3 -96 8 -110 11 -49 12
-258 16 -265 4z"/>
<path d="M807 4149 c7 -7 15 -10 18 -7 3 3 -2 9 -12 12 -14 6 -15 5 -6 -5z"/>
<path d="M780 4141 c0 -6 4 -13 10 -16 6 -3 7 1 4 9 -7 18 -14 21 -14 7z"/>
<path d="M1225 4141 c-6 -5 -34 -11 -64 -14 -30 -3 -57 -10 -60 -14 -3 -5 -19
-8 -34 -8 -15 1 -39 -7 -53 -16 -14 -9 -34 -14 -45 -12 -11 3 -21 -1 -25 -10
-3 -10 -17 -15 -37 -15 -17 1 -33 -4 -35 -10 -2 -7 -14 -12 -26 -12 -12 0 -28
-6 -34 -12 -13 -13 -17 -14 -48 -17 -8 0 -12 -5 -9 -11 4 -6 -5 -10 -20 -10
-14 0 -28 -7 -31 -15 -4 -8 -13 -15 -21 -15 -8 0 -31 -17 -52 -37 -20 -21 -40
-36 -44 -35 -5 1 -6 -2 -3 -7 4 -5 0 -12 -6 -14 -9 -4 -9 -6 -1 -6 6 -1 18 6
27 14 8 8 19 15 25 15 6 0 17 12 25 28 8 15 15 21 16 14 0 -9 13 -6 42 10 24
13 45 25 48 28 3 3 14 6 24 8 11 2 31 11 45 20 14 9 27 15 28 13 4 -3 44 10
93 32 14 5 35 11 47 12 12 1 30 8 40 16 15 12 16 12 8 -1 -8 -13 -7 -13 9 0
10 8 32 15 48 15 16 0 32 5 36 10 18 25 112 3 112 -26 0 -11 62 -103 73 -107
4 -2 5 -8 1 -13 -3 -5 -1 -9 4 -9 5 0 24 -21 42 -47 18 -27 38 -52 44 -58 6
-5 40 -45 74 -89 41 -50 60 -82 54 -90 -8 -10 -15 -70 -16 -138 0 -16 -3 -28
-6 -28 -7 0 -10 -41 -24 -328 -3 -56 -7 -106 -11 -111 -3 -5 1 -12 7 -14 7 -3
9 -6 3 -6 -11 -1 -13 -177 -2 -188 4 -3 1 -13 -6 -21 -9 -13 -9 -14 1 -8 6 4
12 2 12 -3 0 -6 -6 -11 -12 -11 -8 0 -9 -3 -3 -8 17 -12 18 -168 2 -199 -31
-60 33 -116 78 -69 14 16 11 46 -8 83 -13 24 -14 33 -4 36 9 4 8 6 -2 6 -11 1
-11 4 0 18 10 11 10 14 2 9 -15 -9 -15 -16 -17 317 0 137 2 250 5 252 3 2 4
20 3 39 -2 20 0 36 4 36 4 0 8 15 9 33 3 140 7 187 14 187 4 0 8 8 8 18 0 9 2
45 5 80 4 61 3 64 -37 115 -22 29 -51 62 -64 74 -13 12 -23 24 -23 27 0 3 -9
16 -19 28 -42 48 -57 67 -71 88 -8 12 -25 36 -37 53 -13 17 -23 37 -23 45 0 7
-4 10 -10 7 -5 -3 -10 0 -10 8 0 8 -9 24 -20 37 -11 13 -20 27 -20 32 0 11
-13 10 -25 -1z"/>
<path d="M1080 4017 c0 -5 -4 -5 -10 -2 -5 3 -10 2 -10 -2 0 -5 -12 -8 -27 -8
-16 1 -33 -3 -40 -8 -7 -5 -18 -5 -24 -1 -8 4 -9 3 -5 -4 4 -7 4 -12 -1 -13
-4 0 -21 -2 -36 -3 -16 -1 -31 -6 -35 -12 -4 -5 -14 -9 -22 -9 -8 1 -25 -4
-37 -12 -13 -7 -34 -14 -47 -15 -14 -1 -22 -6 -20 -10 5 -7 -13 -12 -43 -11
-7 1 -13 -3 -13 -8 0 -5 -22 -18 -50 -30 -28 -12 -50 -25 -50 -30 0 -5 -7 -9
-15 -9 -8 0 -19 -9 -25 -20 -13 -25 -31 -27 -24 -2 4 12 3 14 -4 4 -5 -7 -7
-25 -5 -40 3 -19 2 -23 -5 -14 -7 11 -11 10 -16 -4 -4 -9 -2 -22 4 -28 8 -8 9
-6 4 8 -5 13 -4 17 3 13 13 -8 36 17 25 28 -4 5 -2 5 5 2 6 -4 18 0 26 8 9 8
23 15 31 15 9 0 16 5 16 10 0 6 7 10 15 10 8 0 15 8 15 18 0 14 2 15 10 2 6
-10 10 -11 10 -2 0 6 3 11 8 10 13 -4 52 13 48 21 -3 4 5 7 17 6 12 -1 24 2
27 6 3 5 15 10 25 12 11 2 30 8 42 15 12 7 33 13 47 14 14 1 28 8 30 15 3 7
12 10 20 7 8 -3 30 1 48 10 18 8 49 17 68 20 19 3 46 8 60 11 22 5 28 0 44
-35 11 -22 23 -40 28 -40 4 0 8 -7 8 -15 0 -7 6 -18 13 -22 6 -4 18 -20 25
-34 8 -15 24 -37 36 -50 12 -13 32 -39 44 -56 13 -18 43 -56 67 -84 34 -40 42
-56 35 -69 -5 -10 -6 -20 -3 -24 3 -3 2 -6 -3 -6 -5 0 -10 -31 -11 -69 -1 -38
-5 -82 -8 -98 -13 -69 -17 -132 -19 -282 -1 -111 -5 -164 -14 -173 -20 -20
-15 -76 8 -88 10 -6 25 -9 32 -8 33 7 46 66 23 102 -14 21 -14 72 0 231 3 39
8 113 10 165 2 52 7 106 10 120 4 14 9 61 12 105 4 75 3 82 -19 105 -14 14
-37 43 -53 65 -16 22 -40 50 -52 62 -13 12 -23 25 -23 29 0 9 -73 108 -82 112
-5 2 -6 8 -2 13 3 5 0 9 -5 9 -6 0 -11 5 -11 10 0 6 -10 24 -22 41 -19 26 -27
29 -65 27 -24 -2 -43 -7 -43 -11z"/>
<path d="M1068 3915 c-2 -2 -26 -7 -53 -11 -28 -3 -58 -12 -69 -19 -10 -8 -24
-11 -31 -9 -7 3 -27 -2 -44 -11 -18 -9 -36 -13 -41 -10 -6 3 -10 1 -10 -5 0
-6 -4 -9 -9 -5 -5 3 -12 1 -16 -5 -3 -5 -17 -10 -31 -10 -13 0 -24 -4 -24 -10
0 -5 -5 -10 -11 -10 -18 0 -179 -81 -179 -90 0 -5 -15 -12 -32 -16 -18 -4 -27
-9 -20 -11 23 -9 12 -20 -15 -16 -21 3 -24 2 -14 -5 12 -9 12 -12 -1 -26 -9
-8 -19 -12 -23 -8 -5 4 -5 1 -1 -5 4 -7 3 -13 -2 -13 -5 0 -9 -7 -9 -15 0 -21
5 -19 34 15 13 17 30 27 35 23 7 -3 8 -1 4 5 -4 7 -1 12 8 12 9 0 16 4 16 9 0
9 38 24 53 22 5 -1 6 3 3 8 -5 7 10 19 34 26 3 1 21 8 40 17 19 8 38 15 43 16
4 1 21 9 38 18 17 9 43 18 58 20 14 3 27 9 29 15 2 5 15 9 28 9 14 0 33 4 43
10 10 5 33 12 52 15 18 3 39 11 46 17 7 6 13 7 13 2 0 -4 5 -3 11 3 19 19 43
2 84 -60 22 -34 41 -68 43 -74 2 -7 8 -13 13 -13 5 0 9 -6 9 -14 0 -8 3 -16 8
-18 8 -3 46 -49 77 -92 11 -16 26 -35 33 -42 14 -14 12 -79 -1 -102 -4 -5 -9
-62 -11 -127 -3 -64 -9 -122 -16 -130 -8 -9 -8 -15 0 -20 7 -4 7 -11 2 -18
-11 -15 -8 -402 3 -472 12 -79 13 -99 1 -120 -6 -11 -11 -29 -11 -40 0 -22 31
-55 51 -55 15 0 43 37 40 53 -5 28 -18 57 -25 57 -10 0 -10 12 -11 385 -1 304
1 346 15 405 4 14 7 55 8 92 1 37 5 70 9 74 11 10 -15 53 -61 104 -22 25 -41
48 -41 52 0 4 -6 13 -13 20 -7 7 -28 36 -47 63 -18 28 -38 53 -43 56 -5 4 -7
11 -3 17 3 5 -1 12 -9 16 -8 3 -15 11 -15 18 0 13 -34 40 -42 33z"/>
<path d="M4450 3862 c0 -10 -5 -23 -10 -28 -6 -6 -13 -21 -15 -34 -2 -13 -10
-27 -17 -32 -7 -4 -9 -8 -5 -8 5 0 -1 -16 -13 -35 -12 -19 -18 -35 -13 -35 4
0 0 -5 -9 -11 -10 -5 -18 -15 -18 -20 0 -6 -6 -16 -12 -23 -7 -8 -20 -24 -28
-36 -14 -21 -23 -33 -84 -104 -28 -33 -26 -46 7 -45 15 0 39 22 75 69 28 38
52 73 52 78 0 6 6 12 13 15 12 5 72 119 97 185 10 26 17 31 34 26 11 -3 27
-13 34 -22 6 -9 12 -13 12 -9 0 4 18 -2 40 -13 22 -11 40 -24 40 -28 0 -4 16
-16 35 -26 19 -11 35 -23 35 -28 0 -5 5 -6 10 -3 12 7 24 -20 16 -34 -4 -6
-14 -4 -26 7 -36 33 -50 43 -50 36 0 -4 -8 0 -17 8 -10 9 -28 19 -40 22 -13 4
-23 11 -23 15 0 4 -9 7 -20 8 -14 1 -26 -13 -46 -55 -15 -31 -27 -63 -27 -69
0 -7 -4 -13 -8 -13 -4 0 -11 -10 -15 -22 -4 -13 -9 -25 -13 -28 -3 -3 -24 -32
-46 -64 -22 -33 -46 -66 -54 -73 -20 -20 -23 -62 -5 -59 18 3 44 25 64 56 8
12 21 28 28 36 6 7 12 17 12 23 0 6 5 11 10 11 6 0 10 6 10 14 0 8 3 16 8 18
9 4 72 130 72 144 0 22 22 33 44 21 11 -7 23 -14 26 -18 3 -3 22 -13 43 -22
20 -10 37 -23 37 -29 0 -6 3 -8 7 -5 3 4 19 -6 34 -22 15 -16 30 -27 33 -24 3
3 8 -2 12 -11 3 -9 12 -16 19 -16 6 0 17 -10 23 -22 l11 -23 0 23 c1 12 -3 22
-9 22 -5 0 -10 6 -10 13 0 6 -15 25 -34 40 -22 19 -33 37 -33 55 0 24 0 25 13
7 8 -10 14 -14 14 -9 0 6 -16 29 -35 51 -19 22 -31 44 -27 48 4 5 1 5 -5 1 -7
-4 -13 -2 -13 3 0 6 -3 10 -7 9 -13 -4 -54 22 -49 30 3 5 -5 9 -17 9 -12 1
-23 7 -25 13 -2 5 -10 10 -18 10 -8 0 -14 5 -14 10 0 6 -9 10 -21 10 -11 0
-27 7 -35 15 -21 21 -54 19 -54 -3z"/>
<path d="M4655 3809 c-4 -6 -1 -17 7 -25 12 -12 14 -11 15 6 2 23 -13 35 -22
19z"/>
<path d="M930 3779 c-36 -10 -75 -21 -87 -23 -12 -2 -30 -9 -41 -15 -12 -6
-28 -11 -36 -11 -9 0 -39 -11 -68 -25 -28 -14 -57 -25 -64 -25 -6 0 -17 -7
-24 -15 -7 -9 -15 -13 -18 -11 -6 7 -65 -26 -75 -41 -4 -7 -15 -13 -22 -13 -8
0 -15 -4 -15 -10 0 -5 -7 -10 -15 -10 -8 0 -15 -5 -15 -11 0 -6 -7 -8 -16 -5
-9 3 -12 2 -9 -4 4 -6 -8 -24 -25 -41 -17 -17 -29 -34 -26 -36 3 -3 -1 -12 -9
-20 -8 -8 -15 -18 -15 -23 0 -5 12 3 27 18 15 15 27 30 25 35 -1 4 2 7 7 7 5
0 23 11 39 25 16 13 32 21 36 17 4 -4 6 -1 4 7 -2 8 6 17 17 19 11 2 23 9 27
15 3 6 15 12 25 13 9 2 19 8 21 14 2 5 8 8 13 4 5 -3 9 0 9 6 0 6 5 8 11 4 6
-3 14 -1 18 5 4 6 18 14 32 16 13 3 29 11 35 20 6 8 14 12 17 9 3 -4 24 1 47
10 22 9 44 15 48 14 4 -1 16 3 28 9 11 6 33 13 50 15 16 2 32 7 36 12 9 14 71
11 76 -3 2 -6 10 -18 18 -25 8 -8 14 -18 14 -21 0 -8 115 -169 135 -188 15
-15 14 -144 -1 -169 -5 -7 -10 -104 -11 -216 -2 -148 -6 -208 -16 -225 -8 -12
-13 -28 -12 -34 2 -7 3 -17 4 -22 0 -5 8 -17 17 -25 14 -14 17 -14 40 0 18 12
24 25 24 53 0 20 -5 42 -12 49 -11 11 -12 120 -2 217 2 22 6 94 10 160 3 66 9
124 13 130 5 5 7 19 5 30 -1 11 1 22 6 25 5 3 -20 44 -55 90 -35 47 -64 91
-65 98 0 6 -7 12 -15 12 -8 0 -15 7 -15 15 0 8 -5 15 -11 15 -5 0 -7 5 -4 10
3 6 1 10 -4 10 -6 0 -11 6 -11 13 0 12 -43 68 -51 66 -2 -1 -33 -10 -69 -20z"/>
<path d="M2314 3684 c-25 -12 -33 -23 -36 -49 -2 -22 1 -36 9 -39 9 -4 11 -22
8 -68 -14 -165 -21 -385 -28 -825 0 -40 -5 -73 -10 -73 -6 0 -6 -5 0 -12 11
-15 10 -58 -1 -76 -4 -7 -2 -12 4 -12 8 0 8 -6 0 -20 -6 -12 -7 -20 -1 -20 6
0 6 -11 1 -30 -5 -19 -5 -30 1 -30 6 0 7 -5 4 -10 -8 -13 -13 -110 -5 -110 3
0 6 -46 7 -103 1 -56 5 -226 8 -377 3 -151 7 -290 9 -308 2 -18 -1 -35 -7 -39
-5 -3 -112 -7 -236 -8 -155 -1 -233 -5 -248 -14 -18 -9 -23 -9 -23 1 0 8 -3 9
-8 3 -4 -5 -18 -11 -32 -12 -87 -5 -158 -12 -180 -18 -14 -3 -45 -8 -70 -10
-25 -3 -52 -6 -60 -8 -8 -2 -26 -7 -40 -10 -14 -3 -41 -8 -61 -10 -20 -3 -43
-8 -49 -12 -7 -5 -23 -9 -34 -10 -12 -2 -45 -10 -73 -18 -29 -9 -53 -13 -53
-10 0 3 -6 0 -14 -6 -8 -7 -27 -14 -43 -17 -15 -3 -29 -9 -31 -15 -2 -5 -15
-9 -28 -9 -13 0 -24 -4 -24 -10 0 -5 -7 -10 -15 -10 -36 0 -205 -117 -205
-142 0 -5 -6 -16 -14 -24 -8 -8 -13 -23 -11 -33 2 -11 -3 -22 -13 -26 -15 -6
-15 -8 -1 -18 19 -15 32 -47 18 -47 -6 0 -7 -5 -2 -12 4 -7 8 -16 8 -20 0 -17
15 -19 16 -2 2 74 10 118 27 141 25 35 88 93 101 93 5 0 16 6 23 14 14 13 176
83 214 91 10 2 33 8 49 14 68 22 102 31 140 37 22 3 43 8 48 11 4 2 29 7 55 9
26 3 61 9 77 14 17 6 59 12 95 14 36 3 76 8 90 11 14 3 75 8 135 11 61 3 130
7 155 9 25 3 115 8 200 11 85 3 159 10 164 15 12 11 15 106 4 136 -4 13 -3 25
3 28 5 4 7 11 3 16 -3 6 -8 40 -11 77 -9 97 -12 1242 -5 1242 4 0 8 35 8 78 4
201 13 452 19 497 9 70 8 67 26 88 20 22 13 58 -12 64 -11 3 -16 9 -13 14 7
12 5 11 -32 -7z"/>
<path d="M2060 3682 c-29 -9 -49 -45 -38 -66 6 -11 10 -54 9 -95 -2 -42 -4
-123 -5 -181 -1 -58 -4 -110 -7 -115 -3 -6 -5 -34 -4 -62 0 -30 -4 -53 -9 -53
-6 0 -6 -4 1 -11 6 -6 8 -24 4 -42 -8 -37 -5 -628 3 -672 3 -16 8 -102 11
-190 3 -88 7 -173 10 -190 17 -120 26 -274 16 -276 -3 -1 -58 -2 -121 -4 -63
-2 -115 -4 -115 -5 0 -3 -40 -8 -130 -15 -126 -9 -165 -14 -174 -19 -4 -3 -36
-8 -72 -11 -64 -5 -72 -6 -119 -18 -14 -4 -42 -9 -64 -12 -21 -3 -43 -8 -48
-11 -6 -4 -28 -8 -49 -9 -21 -2 -44 -7 -51 -11 -7 -5 -20 -10 -28 -11 -8 -1
-24 -4 -35 -5 -11 -2 -26 -7 -32 -11 -7 -5 -21 -10 -30 -12 -10 -2 -37 -10
-60 -19 -24 -8 -43 -13 -43 -10 0 3 -7 -2 -16 -10 -13 -14 -28 -18 -50 -15 -4
0 -10 -4 -13 -9 -3 -6 -13 -12 -21 -14 -14 -3 -21 -7 -55 -36 -11 -10 -15 -10
-15 0 0 7 -5 5 -13 -5 -6 -9 -27 -28 -46 -42 -19 -14 -32 -25 -27 -25 4 0 -4
-10 -17 -22 -45 -43 -72 -165 -38 -176 12 -4 12 -2 15 41 0 15 6 31 13 35 6 4
13 16 15 27 8 50 196 179 290 201 16 3 25 10 22 15 -3 5 5 9 17 9 20 0 52 8
109 28 8 3 18 4 23 4 4 -1 7 1 7 5 0 5 15 9 33 11 61 5 72 7 78 15 3 4 26 9
52 11 25 3 51 7 56 10 5 4 29 9 53 12 82 10 105 13 119 18 8 3 48 8 89 10 41
3 86 8 100 11 29 7 150 15 296 19 55 1 106 6 112 10 7 4 12 4 12 0 0 -3 7 -1
15 6 15 12 15 90 -1 150 -3 14 -7 73 -7 132 -1 60 -4 108 -7 108 -3 0 -6 24
-7 53 -2 28 -5 84 -7 122 -5 70 -7 880 -3 1007 1 38 5 68 8 68 3 0 6 17 7 38
6 203 9 222 30 243 23 21 29 39 12 39 -5 0 -10 6 -10 14 0 15 -27 25 -50 18z"/>
<path d="M908 3670 c-2 -6 -21 -13 -42 -15 -22 -3 -44 -9 -50 -14 -6 -5 -24
-11 -41 -12 -16 -2 -33 -7 -36 -12 -3 -4 -15 -9 -26 -11 -12 -3 -35 -12 -52
-20 -17 -9 -31 -13 -31 -10 0 4 -9 -1 -20 -11 -11 -10 -20 -15 -20 -11 0 9
-62 -25 -72 -39 -4 -5 -8 -6 -8 -2 0 5 -13 -1 -29 -12 -16 -12 -34 -21 -40
-21 -6 0 -11 -7 -11 -16 0 -8 -4 -13 -9 -9 -6 3 -14 -3 -20 -12 -6 -10 -11
-15 -11 -11 0 13 -52 -41 -54 -57 -1 -9 -9 -20 -16 -25 -8 -5 -11 -13 -6 -17
5 -4 11 -2 13 5 3 6 11 12 19 12 8 0 13 4 12 9 -2 5 1 8 5 7 5 0 13 7 18 17 6
9 14 15 20 12 5 -4 9 1 9 9 0 9 7 16 15 16 8 0 15 4 15 9 0 5 14 14 30 21 17
7 30 16 30 21 0 5 3 8 8 7 4 -1 37 13 75 30 37 18 69 32 72 32 2 0 16 5 32 12
15 6 31 12 36 13 4 2 8 3 10 5 1 1 11 3 21 5 10 2 22 7 25 12 3 4 15 9 26 10
31 3 54 8 61 16 16 15 54 6 65 -15 6 -13 35 -54 63 -93 28 -38 57 -80 63 -93
12 -23 14 -72 3 -72 -3 0 -7 -51 -9 -112 -2 -62 -5 -142 -7 -178 -5 -85 -5
-69 1 -200 3 -63 6 -179 7 -257 1 -120 4 -144 17 -148 50 -15 80 26 54 77 -7
15 -15 44 -17 65 -3 21 -8 58 -13 83 -5 25 -8 149 -7 275 2 292 2 307 12 302
4 -3 8 39 10 93 3 87 1 99 -15 109 -10 6 -14 11 -9 11 6 0 2 6 -8 13 -9 7 -22
22 -29 33 -63 108 -131 188 -139 164z"/>
<path d="M1799 3664 c-19 -10 -24 -21 -25 -53 0 -23 3 -41 7 -41 4 0 4 -12 1
-27 -4 -16 -7 -76 -7 -135 0 -60 -2 -108 -5 -108 -3 0 -6 -15 -8 -32 -6 -72
-4 -726 3 -763 3 -22 8 -85 10 -140 4 -93 6 -121 19 -200 3 -16 7 -65 10 -107
4 -68 2 -78 -12 -79 -9 -1 -43 -3 -75 -4 -32 -2 -64 -8 -71 -14 -7 -6 -17 -6
-26 -1 -8 5 -19 6 -25 2 -10 -7 -23 -8 -110 -13 -27 -1 -56 -7 -62 -12 -9 -6
-13 -5 -13 4 0 11 -2 11 -8 1 -5 -7 -35 -14 -68 -17 -32 -2 -70 -7 -84 -10
-14 -4 -48 -11 -77 -15 -28 -4 -56 -11 -62 -14 -6 -4 -28 -9 -51 -11 -22 -2
-48 -8 -57 -14 -10 -5 -31 -10 -48 -12 -16 -2 -36 -8 -43 -13 -7 -5 -25 -11
-39 -12 -14 -2 -31 -8 -36 -13 -6 -6 -18 -11 -27 -11 -9 0 -36 -10 -60 -21
-24 -12 -50 -22 -57 -23 -7 -1 -19 -8 -25 -14 -7 -7 -17 -12 -23 -12 -7 0 -31
-14 -53 -30 -23 -17 -42 -28 -42 -25 0 3 -22 -17 -50 -45 -27 -28 -50 -56 -50
-64 0 -7 -6 -19 -14 -25 -9 -8 -12 -23 -9 -44 3 -17 6 -44 7 -59 2 -29 12 -47
14 -25 11 103 12 106 89 182 48 48 213 147 213 128 0 -4 4 -3 8 2 4 6 34 19
67 29 33 11 66 24 72 29 7 5 29 10 49 11 20 2 39 7 42 12 4 5 23 11 42 13 19
2 40 6 45 9 6 4 15 7 22 8 93 14 128 21 128 25 0 1 9 3 20 4 67 8 120 17 126
21 5 3 42 6 82 8 41 2 80 6 86 10 6 4 53 10 104 12 128 6 196 12 208 20 13 8
8 114 -6 133 -8 11 -7 13 3 7 12 -7 12 -4 2 14 -7 12 -14 66 -16 119 -7 137
-9 165 -16 176 -8 14 -10 127 -10 495 0 385 2 500 11 500 4 0 7 18 6 40 -1 22
2 40 5 40 3 0 5 21 4 46 -1 27 6 60 18 82 32 63 2 106 -53 76z"/>
<path d="M4583 3611 c-2 -9 -3 -20 -3 -25 1 -5 -3 -12 -10 -16 -6 -4 -12 -14
-14 -22 -1 -9 -7 -22 -13 -29 -6 -8 -14 -24 -17 -37 -4 -12 -12 -19 -18 -16
-6 4 -8 2 -5 -3 4 -6 -3 -22 -14 -37 -11 -14 -18 -26 -14 -26 3 0 -6 -12 -20
-27 -28 -31 -28 -45 1 -49 15 -2 30 13 62 61 23 36 42 67 42 70 0 3 11 22 24
43 23 37 26 44 26 61 0 18 28 19 47 3 10 -9 25 -18 33 -20 8 -2 17 -8 18 -13
2 -5 10 -9 17 -9 8 0 18 -6 22 -13 9 -14 43 -31 56 -28 5 1 6 -3 2 -9 -3 -5 1
-13 9 -16 9 -3 16 -12 16 -20 0 -8 6 -14 14 -14 8 0 17 -7 20 -16 3 -8 11 -12
17 -9 7 5 4 13 -7 26 -9 10 -13 19 -9 19 4 0 -6 14 -24 30 -17 17 -31 35 -31
41 0 5 -4 7 -10 4 -5 -3 -10 -1 -10 4 0 6 -6 11 -14 11 -8 0 -16 4 -18 9 -4 9
-91 66 -97 62 -2 -2 -7 3 -12 10 -12 19 -61 19 -66 0z"/>
<path d="M778 3518 c-2 -4 -14 -9 -28 -12 -14 -2 -26 -5 -27 -7 -2 -1 -6 -2
-10 -3 -5 -1 -17 -7 -28 -13 -11 -6 -22 -11 -25 -10 -13 2 -150 -57 -150 -65
0 -5 -4 -7 -9 -4 -5 3 -14 -1 -21 -9 -7 -8 -18 -15 -25 -15 -7 0 -18 -7 -25
-15 -7 -9 -15 -13 -18 -11 -2 3 -10 0 -17 -7 -7 -7 -25 -21 -39 -31 -14 -10
-26 -25 -26 -33 0 -9 -6 -13 -15 -9 -17 6 -20 -11 -5 -34 8 -12 10 -12 10 -1
0 8 3 12 6 8 3 -3 16 5 28 17 23 26 107 81 118 78 3 -1 12 5 18 13 7 8 18 15
25 15 6 0 32 10 56 23 24 13 71 31 104 41 33 11 65 22 70 26 6 3 29 12 53 19
41 12 45 11 63 -11 10 -13 23 -28 29 -35 5 -7 10 -17 10 -22 0 -6 6 -14 13
-18 29 -19 45 -68 41 -128 -2 -33 -5 -101 -7 -151 -2 -50 -8 -97 -12 -104 -6
-9 -4 -11 4 -5 10 6 11 3 2 -14 -7 -12 -8 -21 -2 -21 11 0 9 -19 -4 -39 -5 -9
-5 -16 2 -18 11 -4 6 -40 -8 -58 -20 -27 3 -94 33 -95 10 0 38 30 40 43 4 33
3 43 -7 53 -14 14 -13 383 1 392 24 17 4 142 -23 142 -7 0 -13 5 -13 10 0 6
-19 38 -42 71 l-42 60 -48 -3 c-26 -2 -49 -6 -50 -10z"/>
<path d="M4652 3485 c-12 -14 -22 -29 -22 -34 0 -13 -39 -98 -40 -86 -1 12
-32 -53 -36 -77 -3 -12 2 -18 14 -18 19 0 73 80 93 138 7 21 18 32 30 32 10 0
19 -5 19 -11 0 -5 4 -8 8 -5 5 3 18 -4 30 -14 12 -11 28 -20 37 -20 9 0 13 -4
10 -10 -3 -5 1 -10 9 -10 9 0 16 -4 16 -10 0 -5 7 -10 15 -10 8 0 15 -5 15
-11 0 -13 38 -49 52 -49 4 0 8 7 8 15 0 8 -5 15 -11 15 -7 0 -9 10 -7 25 4 18
2 22 -6 16 -8 -7 -24 3 -50 30 -22 21 -45 39 -53 39 -7 0 -13 7 -13 15 0 9 -6
12 -15 9 -8 -4 -17 1 -21 10 -3 9 -10 14 -14 11 -5 -3 -17 4 -28 15 l-18 20
-22 -25z"/>
<path d="M736 3384 c-21 -7 -42 -12 -46 -9 -4 3 -13 -2 -20 -10 -7 -8 -21 -15
-32 -15 -10 0 -30 -7 -43 -16 -13 -9 -30 -17 -37 -18 -7 -1 -31 -11 -53 -21
-22 -10 -43 -17 -47 -17 -5 1 -8 -3 -8 -8 0 -5 -7 -10 -15 -10 -8 0 -15 -5
-15 -11 0 -5 -4 -7 -10 -4 -5 3 -10 1 -10 -4 0 -6 -7 -11 -15 -11 -9 0 -18 -7
-21 -15 -4 -8 -9 -13 -13 -11 -3 2 -26 -16 -51 -41 -25 -25 -38 -42 -30 -39
13 7 13 6 0 -6 -14 -13 -40 -53 -40 -62 0 -2 7 -6 14 -9 10 -4 13 -1 9 8 -3 8
2 18 11 21 9 3 16 12 16 19 0 8 5 17 12 21 7 5 8 3 3 -6 -5 -9 -4 -11 3 -6 7
4 12 14 12 22 0 8 6 14 13 14 6 1 27 14 46 30 19 16 38 27 42 24 4 -2 11 1 16
9 7 11 44 31 68 36 6 1 17 9 26 17 9 8 19 11 22 7 4 -3 7 0 7 7 0 7 3 10 7 7
3 -4 11 -3 17 2 13 10 155 60 188 66 21 5 58 -23 58 -44 0 -5 7 -17 17 -26 13
-14 16 -35 13 -123 -4 -163 -2 -437 5 -532 8 -115 8 -122 2 -147 -8 -30 1 -57
24 -71 40 -25 73 51 40 93 -5 5 -11 35 -15 65 -4 30 -10 73 -14 95 -7 33 -9
530 -2 530 2 0 7 21 14 53 3 18 -53 114 -85 145 -21 20 -31 20 -83 1z"/>
<path d="M2141 3349 c-21 -23 -22 -66 -2 -79 14 -8 13 -247 -1 -288 -5 -16 -5
-21 3 -16 8 4 8 1 1 -12 -10 -20 -13 -644 -3 -644 6 0 11 -104 16 -345 1 -82
4 -150 5 -150 5 0 10 -47 14 -123 3 -58 1 -84 -7 -87 -7 -2 -93 -6 -192 -8
-99 -3 -193 -8 -210 -12 -16 -3 -64 -8 -105 -10 -41 -2 -86 -6 -100 -9 -14 -4
-45 -8 -70 -11 -80 -9 -112 -15 -123 -22 -6 -4 -27 -8 -47 -10 -37 -3 -85 -10
-85 -13 0 -1 -13 -4 -29 -6 -16 -3 -41 -11 -55 -18 -14 -6 -40 -12 -58 -11
-17 1 -31 -3 -30 -8 1 -5 -9 -11 -23 -14 -48 -9 -112 -33 -181 -69 -14 -7 -29
-11 -33 -7 -3 3 -6 2 -6 -4 0 -5 -11 -15 -24 -21 -54 -24 -146 -115 -146 -144
0 -10 -5 -18 -11 -18 -5 0 -8 -4 -4 -9 3 -5 1 -12 -4 -15 -17 -11 20 -116 41
-116 6 0 5 7 -3 17 -10 11 -10 14 -1 9 6 -4 12 -3 12 3 0 5 -8 11 -17 13 -15
3 -15 4 0 20 13 12 14 18 4 22 -9 5 -9 7 1 12 6 3 12 11 12 18 0 7 16 35 35
62 19 27 35 44 35 39 0 -7 3 -7 8 0 24 33 194 120 255 131 18 3 34 9 35 15 2
5 13 9 23 9 11 0 28 4 37 9 9 5 35 12 56 15 22 4 46 12 55 19 12 10 13 9 7 -1
-7 -11 -4 -12 10 -4 11 5 35 12 55 15 20 2 41 7 45 10 5 2 40 8 79 12 38 4 74
10 80 13 5 4 28 7 50 8 50 2 157 14 165 19 6 4 236 15 407 19 54 2 86 7 95 17
15 16 16 38 5 57 -5 7 -3 12 5 12 9 0 9 3 2 8 -6 4 -12 49 -13 102 -6 165 -11
254 -17 300 -7 46 -10 936 -4 1090 2 47 8 91 13 98 6 8 5 12 -3 12 -7 0 -2 11
11 24 30 31 30 56 2 79 -28 23 -48 22 -72 -4z"/>
<path d="M1877 3333 c-14 -30 -15 -38 -2 -67 5 -11 8 -42 7 -70 -5 -209 -3
-653 3 -706 12 -113 13 -132 17 -252 2 -65 5 -118 8 -118 3 0 6 -10 6 -22 11
-169 15 -211 18 -217 13 -21 -17 -30 -114 -34 -58 -2 -113 -8 -122 -11 -9 -4
-57 -8 -107 -9 -50 -1 -91 -5 -91 -9 0 -4 -7 -5 -15 -2 -8 4 -15 2 -15 -3 0
-5 -17 -9 -37 -10 -81 -2 -131 -8 -126 -15 5 -9 1 -9 -79 -11 -31 -1 -54 -5
-51 -9 2 -5 3 -8 1 -9 -2 0 -25 -3 -51 -6 -27 -3 -60 -11 -74 -18 -14 -7 -36
-12 -49 -10 -13 1 -24 -1 -24 -4 0 -9 -119 -46 -142 -45 -9 1 -16 -1 -15 -5 1
-3 0 -6 -3 -6 -3 -1 -18 -8 -35 -16 -16 -9 -48 -24 -70 -35 -68 -32 -214 -144
-188 -144 3 0 -2 -9 -12 -20 -10 -11 -15 -20 -10 -20 4 0 2 -6 -4 -13 -6 -8
-8 -17 -4 -20 3 -4 -2 -7 -13 -7 -13 0 -15 -3 -7 -8 7 -4 11 -18 8 -30 -2 -14
2 -25 10 -28 8 -3 11 -12 7 -22 -5 -14 -4 -15 10 -2 13 13 14 16 2 23 -8 4
-14 13 -14 18 0 6 5 7 10 4 9 -6 14 8 11 28 0 4 3 7 9 7 6 0 9 3 9 8 -4 26 28
66 102 127 28 24 189 105 208 105 7 0 19 7 28 15 8 8 18 13 23 10 5 -3 21 0
37 6 15 7 37 14 48 15 11 2 45 11 75 21 30 9 60 16 67 16 7 0 13 3 13 7 0 3
10 6 23 6 26 1 88 11 108 18 8 3 38 8 67 10 29 3 56 7 60 10 8 5 121 18 152
18 8 0 35 4 60 10 24 5 107 11 185 14 176 6 168 5 180 18 8 9 12 118 5 136 -1
3 -2 8 -1 13 0 4 -4 7 -9 7 -6 0 -10 5 -10 11 0 5 6 7 13 3 9 -6 9 -4 1 7 -6
8 -12 41 -13 74 -4 86 -9 161 -18 230 -4 33 -7 264 -8 514 0 355 3 455 13 458
6 3 12 13 12 24 0 10 5 19 11 19 6 0 3 7 -5 16 -9 8 -16 19 -16 23 0 4 -13 8
-30 9 -23 2 -32 -3 -43 -25z"/>
<path d="M4688 3318 c-12 -24 -23 -46 -24 -50 -1 -5 -2 -9 -4 -10 -8 -12 -6
-38 4 -38 15 0 46 32 46 48 0 6 7 18 16 26 14 15 18 14 47 -6 18 -12 35 -27
39 -33 4 -5 8 -6 8 -2 0 4 16 -8 36 -27 20 -20 41 -33 45 -30 5 3 9 -1 9 -8 0
-10 2 -10 9 1 6 9 4 19 -5 28 -8 8 -12 19 -8 24 3 5 2 8 -3 7 -14 -4 -63 34
-56 45 3 5 2 7 -4 4 -5 -4 -19 2 -29 11 -18 16 -85 52 -98 52 -3 0 -16 -19
-28 -42z"/>
<path d="M1638 3333 c-24 -28 -28 -51 -14 -77 7 -15 11 -50 9 -88 -3 -72 -4
-373 -1 -495 1 -50 6 -83 12 -83 6 0 4 -5 -4 -10 -8 -5 -10 -10 -4 -10 11 0
15 -45 18 -195 1 -44 5 -86 9 -93 5 -7 10 -48 13 -92 5 -91 8 -87 -76 -94 -30
-2 -55 -5 -55 -6 0 -3 -40 -7 -133 -14 -40 -3 -81 -10 -90 -14 -9 -5 -35 -10
-58 -11 -47 -3 -63 -5 -84 -14 -8 -4 -34 -9 -56 -11 -23 -2 -57 -8 -75 -14
-19 -6 -47 -13 -64 -16 -27 -4 -71 -17 -115 -33 -20 -8 -40 -12 -67 -15 -12
-1 -19 -6 -17 -10 4 -7 -20 -12 -28 -7 -2 1 -22 -8 -46 -20 -23 -12 -42 -18
-42 -14 0 5 -4 3 -8 -4 -4 -6 -16 -13 -27 -15 -11 -1 -29 -11 -39 -20 -10 -10
-23 -15 -28 -12 -4 3 -8 0 -8 -5 0 -6 -7 -11 -15 -11 -8 0 -15 -4 -15 -9 0 -5
-8 -12 -19 -16 -27 -8 -106 -90 -125 -129 -9 -19 -16 -43 -16 -55 0 -12 -5
-21 -11 -21 -5 0 -7 -5 -4 -10 4 -6 11 -8 16 -5 9 6 10 5 14 -33 3 -28 14 -41
14 -16 -1 98 27 149 123 219 38 28 138 85 158 90 3 1 14 5 25 10 67 27 115 44
115 40 0 -3 10 1 23 10 13 8 37 17 53 19 16 3 56 12 89 21 58 15 101 24 138
28 9 1 17 4 17 7 0 4 6 7 13 7 37 1 134 16 147 23 8 4 38 8 66 9 47 2 89 7 89
11 0 5 51 11 120 14 44 2 91 4 105 5 41 2 53 16 52 58 -1 21 -4 49 -8 63 -9
43 -15 102 -17 173 -1 37 -4 67 -7 67 -9 0 -10 53 -14 440 -3 354 1 420 25
420 10 0 1 51 -13 67 -15 18 -42 16 -60 -4z"/>
<path d="M4906 3281 c-3 -5 0 -14 8 -20 11 -9 15 -7 19 9 5 20 -16 29 -27 11z"/>
<path d="M287 3243 c-4 -6 -4 -19 0 -29 4 -11 3 -15 -4 -11 -6 4 -14 0 -17 -9
-9 -24 -4 -24 20 0 15 14 20 27 15 40 -5 12 -10 16 -14 9z"/>
<path d="M234 2932 c4 -6 -1 -19 -11 -29 -18 -18 -30 -63 -18 -63 16 0 45 22
40 31 -4 5 -2 9 2 9 15 0 9 53 -6 58 -8 3 -11 0 -7 -6z"/>
<path d="M187 2825 c3 -8 9 -12 14 -9 12 7 11 11 -5 17 -10 4 -13 1 -9 -8z"/>
<path d="M365 2740 c6 -10 -9 -27 -85 -97 -74 -67 -100 -105 -100 -146 0 -30
25 -31 28 -1 2 25 71 104 91 104 7 0 9 5 6 10 -3 6 1 10 9 10 9 0 16 5 16 11
0 6 10 9 23 7 58 -11 76 97 18 110 -7 1 -10 -2 -6 -8z"/>
<path d="M532 2677 c-5 -7 -12 -20 -15 -29 -4 -10 -14 -18 -24 -19 -10 0 -31
-9 -48 -19 -16 -10 -48 -28 -71 -39 -22 -12 -49 -29 -60 -39 -10 -9 -32 -27
-48 -40 -16 -12 -25 -22 -21 -22 5 0 -2 -8 -13 -19 -12 -10 -19 -21 -15 -25 3
-3 1 -6 -5 -6 -7 0 -12 -9 -12 -20 0 -11 -4 -20 -10 -20 -10 0 -8 -66 3 -75 4
-3 5 -2 2 2 -3 3 0 12 6 20 6 7 8 13 4 13 -5 0 -1 8 7 18 9 9 19 27 23 40 3
12 9 21 13 19 4 -2 15 4 25 15 9 10 14 18 10 18 -5 1 4 8 20 16 15 8 27 19 27
25 0 6 5 7 10 4 6 -3 13 0 15 8 3 7 21 20 40 27 19 8 35 17 35 21 0 4 12 10
28 14 15 3 34 13 43 21 14 13 18 13 29 -1 15 -18 37 -5 51 33 15 39 -26 88
-49 59z"/>
<path d="M385 2457 c-4 -14 -23 -39 -43 -54 -88 -66 -152 -148 -137 -173 3 -6
1 -10 -6 -10 -10 0 -10 -3 -1 -12 14 -14 16 -32 3 -24 -5 3 -11 -4 -14 -15 -5
-20 -5 -20 14 -3 11 10 17 24 15 31 -3 7 1 13 9 13 8 0 12 8 10 20 -2 13 2 20
11 20 8 0 12 5 9 10 -3 6 1 13 9 16 9 3 14 9 11 13 -2 4 9 15 26 25 16 9 29
21 29 25 0 8 22 17 58 26 35 9 42 16 42 45 0 17 -9 40 -19 52 l-20 21 -6 -26z"/>
<path d="M704 2285 c-4 -8 -10 -12 -15 -9 -5 3 -9 -6 -9 -19 0 -18 -8 -28 -30
-37 -16 -7 -33 -12 -37 -13 -13 0 -193 -99 -218 -119 -62 -50 -129 -133 -120
-148 3 -4 -1 -13 -9 -19 -8 -7 -12 -25 -9 -48 5 -46 6 -47 20 -17 8 18 8 22 0
17 -7 -3 -2 5 11 19 12 13 22 30 22 36 0 7 5 12 10 12 6 0 9 4 8 8 -2 5 12 25
30 46 17 20 32 34 32 31 0 -2 10 4 23 15 12 10 26 19 31 19 5 0 12 4 15 10 10
15 143 81 152 75 5 -3 9 -1 9 4 0 6 17 14 37 19 30 7 41 5 55 -9 30 -30 54 -9
65 55 2 16 0 27 -7 27 -6 0 -9 4 -6 8 5 8 -37 52 -49 52 -3 0 -8 -7 -11 -15z
m30 -66 c-8 -14 -24 -10 -24 6 0 9 6 12 15 9 8 -4 12 -10 9 -15z"/>
<path d="M360 1559 c0 -5 5 -7 10 -4 6 3 10 8 10 11 0 2 -4 4 -10 4 -5 0 -10
-5 -10 -11z"/>
<path d="M2170 1360 c0 -3 -73 -6 -163 -8 -160 -2 -214 -6 -272 -17 -16 -4
-62 -8 -101 -9 -39 -2 -78 -7 -85 -12 -8 -5 -27 -10 -44 -11 -39 -4 -64 -8
-95 -16 -14 -4 -41 -9 -62 -11 -20 -2 -45 -9 -56 -15 -11 -6 -36 -12 -55 -13
-19 -2 -33 -6 -30 -10 2 -5 -6 -9 -19 -10 -34 -2 -40 -3 -73 -18 -16 -7 -46
-20 -65 -28 -19 -8 -37 -15 -40 -15 -3 1 -17 -8 -32 -18 -14 -10 -29 -19 -34
-19 -18 0 -96 -75 -118 -113 -23 -40 -32 -125 -14 -142 7 -7 22 30 23 55 0 24
57 108 82 121 13 7 23 16 23 19 0 4 14 13 30 20 17 7 30 17 30 23 0 6 3 8 6 4
3 -3 22 3 42 13 19 11 39 17 44 14 4 -3 8 -1 8 5 0 5 15 13 33 16 17 4 37 12
44 17 7 5 22 11 35 14 13 2 50 10 83 18 118 29 130 32 160 31 17 0 33 3 36 8
7 10 36 15 109 19 33 1 60 5 60 8 0 7 4 7 147 14 62 2 118 8 124 12 7 4 109 9
227 10 118 2 217 6 221 9 8 9 -30 36 -40 29 -5 -3 -9 -1 -9 4 0 5 -7 9 -15 9
-8 0 -15 -3 -15 -7 0 -3 -9 -6 -20 -6 -11 0 -20 4 -20 8 0 5 -9 4 -20 -2 -11
-6 -20 -7 -20 -3 0 4 -11 8 -25 8 -14 0 -25 -2 -25 -5z"/>
<path d="M1980 1239 c0 -7 -52 -11 -162 -13 -43 0 -78 -4 -78 -8 0 -4 -9 -5
-20 -3 -11 2 -20 1 -20 -3 0 -4 -24 -8 -52 -9 -70 -3 -101 -8 -115 -16 -6 -4
-32 -9 -57 -11 -25 -3 -51 -8 -57 -12 -6 -3 -27 -9 -47 -11 -20 -3 -48 -10
-62 -16 -14 -5 -34 -11 -45 -12 -11 -2 -37 -10 -57 -19 -21 -9 -38 -14 -38
-12 0 3 -12 -1 -27 -9 -15 -8 -30 -12 -34 -10 -4 3 -9 -2 -13 -10 -3 -8 -12
-15 -19 -15 -8 0 -20 -7 -27 -15 -7 -8 -16 -13 -20 -10 -7 5 -88 -70 -119
-109 -7 -10 -13 -29 -13 -42 0 -14 -8 -29 -18 -34 -20 -11 -31 -4 -24 14 3 7
-2 19 -11 26 -13 10 -15 9 -15 -8 0 -24 27 -55 41 -47 5 4 9 1 9 -5 0 -6 5 -8
10 -5 6 3 10 -3 10 -15 0 -11 7 -23 15 -26 8 -4 15 -12 15 -19 0 -6 9 -20 20
-30 15 -14 20 -15 20 -4 0 12 2 12 9 -1 6 -8 7 -18 4 -24 -4 -5 -1 -6 6 -2 7
5 18 0 27 -10 11 -15 13 -16 8 -2 -4 11 0 16 12 15 9 -1 19 5 22 13 3 8 1 12
-3 8 -5 -4 -14 -3 -22 3 -9 9 -13 8 -13 0 0 -6 -9 -2 -21 10 -16 16 -23 18
-35 8 -16 -13 -18 -2 -4 21 5 8 12 11 16 7 4 -4 14 -1 23 6 14 11 14 10 2 -5
-7 -10 -10 -18 -5 -19 5 0 19 -2 32 -3 12 -2 28 4 35 13 9 12 9 13 0 7 -8 -4
-13 -2 -13 4 0 6 -4 9 -9 6 -5 -3 -23 2 -41 11 -31 15 -34 15 -46 -1 -11 -15
-12 -15 -12 6 -1 13 -3 34 -5 48 -2 14 -1 27 4 30 4 3 9 11 11 19 4 16 45 61
56 61 4 0 14 9 22 19 7 11 17 18 21 15 4 -2 10 0 14 5 10 17 115 62 127 55 6
-4 8 -3 4 4 -4 6 7 13 26 17 18 3 44 10 58 16 14 5 34 10 45 12 11 2 33 9 49
16 16 6 31 10 33 7 3 -2 26 2 51 9 26 7 67 16 92 19 25 3 56 8 70 12 14 3 48
7 75 9 94 9 140 14 165 20 14 4 158 8 320 9 246 3 294 5 292 17 -9 36 -20 37
-257 36 -129 -1 -235 -5 -235 -8z"/>
<path d="M4545 1103 c-16 -16 -33 -27 -37 -25 -5 1 -8 -5 -8 -14 0 -8 -4 -13
-9 -9 -5 3 -16 -1 -23 -9 -8 -7 -24 -17 -36 -20 -12 -4 -22 -12 -22 -17 0 -5
-7 -9 -15 -9 -9 0 -18 -7 -21 -15 -4 -10 -15 -13 -30 -11 -14 3 -22 1 -19 -4
6 -10 -51 -31 -61 -22 -4 4 -4 2 -1 -4 7 -13 -37 -29 -53 -19 -4 3 -10 0 -12
-6 -4 -11 -62 -35 -108 -45 -13 -3 -27 -8 -30 -12 -3 -4 -18 -9 -35 -11 -16
-1 -32 -7 -35 -11 -3 -4 -27 -11 -55 -15 -27 -4 -52 -11 -55 -15 -3 -4 -25 -9
-50 -11 -25 -2 -48 -8 -52 -14 -4 -5 -26 -11 -50 -12 -63 -5 -68 -6 -68 -13 0
-3 -17 -7 -37 -9 -66 -4 -78 -6 -84 -14 -4 -5 -33 -10 -65 -12 -33 -1 -77 -7
-99 -13 -22 -6 -70 -13 -106 -15 -36 -2 -71 -7 -78 -11 -6 -4 -60 -10 -119
-13 -135 -5 -132 -5 -132 -13 0 -3 -43 -7 -96 -9 -102 -2 -125 -11 -173 -61
-14 -14 -27 -25 -30 -25 -7 1 -42 -29 -82 -68 -15 -15 -31 -27 -35 -27 -5 0
-19 -12 -31 -27 -13 -14 -23 -23 -23 -20 0 3 -28 -20 -62 -53 -34 -32 -66 -56
-72 -53 -5 3 -6 1 -2 -5 4 -7 1 -12 -9 -12 -9 0 -14 -4 -10 -9 3 -5 -4 -12
-15 -16 -11 -3 -20 -10 -20 -14 0 -4 -13 -21 -29 -37 -16 -16 -26 -35 -23 -43
3 -9 1 -12 -6 -7 -7 4 -12 4 -13 -1 0 -4 -2 -16 -4 -25 -5 -28 24 -30 31 -3 3
14 10 22 15 19 5 -3 9 1 9 8 0 17 36 49 45 40 4 -4 6 -2 5 3 -4 20 0 35 11 35
6 0 31 19 56 43 75 70 83 77 88 77 3 0 17 11 31 25 14 14 29 25 35 25 6 0 7 5
4 10 -3 6 -1 10 4 10 10 0 33 17 86 65 13 11 40 34 61 50 21 17 44 37 53 45 8
8 16 14 18 13 2 -2 4 -3 6 -2 1 1 54 2 117 4 63 1 124 5 135 8 33 11 86 17
166 21 42 2 85 8 95 13 10 6 43 10 72 9 28 -1 52 1 52 4 0 3 8 7 18 8 90 9
166 23 171 30 3 4 22 8 41 7 19 0 44 4 55 9 24 12 38 15 85 18 19 2 37 6 40
10 3 4 25 10 48 13 24 3 56 12 71 20 16 8 31 12 34 9 3 -3 18 1 34 8 15 8 40
14 55 13 15 0 25 2 22 6 -4 7 44 24 59 21 4 -1 7 3 7 9 0 5 5 7 10 4 6 -3 10
-2 10 4 0 5 8 8 18 6 9 -1 24 4 33 11 8 7 24 15 36 17 12 1 28 9 37 16 9 7 22
11 30 8 8 -3 17 1 20 9 3 8 17 14 31 14 15 0 24 4 21 9 -8 13 18 21 35 10 8
-5 11 -9 7 -10 -5 -1 -11 -2 -15 -3 -5 -1 -24 -11 -43 -22 -19 -12 -45 -25
-58 -29 -12 -3 -19 -11 -16 -17 5 -7 0 -9 -14 -6 -13 4 -23 0 -26 -9 -3 -8
-12 -13 -19 -10 -6 2 -19 -2 -28 -9 -8 -7 -26 -16 -40 -18 -13 -2 -26 -5 -29
-6 -3 -2 -8 -2 -12 -1 -5 0 -8 -3 -8 -8 0 -5 -14 -11 -31 -15 -17 -3 -28 -9
-25 -14 2 -4 -11 -7 -30 -7 -18 1 -42 -6 -51 -14 -10 -9 -28 -15 -41 -13 -13
2 -29 -2 -37 -8 -7 -6 -28 -12 -47 -14 -18 -2 -46 -9 -61 -15 -15 -6 -48 -12
-72 -13 -24 -2 -43 -7 -42 -12 1 -5 -23 -10 -55 -10 -31 -1 -56 -5 -55 -11 1
-5 -4 -10 -10 -11 -7 -1 -16 -2 -20 -4 -5 -1 -26 -2 -48 -2 -22 0 -51 -5 -65
-10 -14 -6 -54 -12 -90 -14 -83 -5 -90 -6 -90 -14 0 -4 -28 -8 -62 -9 -73 -3
-123 -8 -158 -16 -14 -4 -73 -8 -132 -10 -103 -3 -110 -5 -153 -36 -25 -18
-45 -37 -45 -42 0 -6 -3 -8 -6 -4 -3 3 -16 -4 -29 -16 -33 -32 -59 -53 -67
-52 -3 0 -18 -13 -32 -28 -14 -15 -26 -26 -26 -23 0 2 -19 -13 -42 -35 -23
-21 -48 -39 -56 -39 -7 0 -10 -4 -7 -10 3 -5 1 -10 -4 -10 -6 0 -30 -19 -54
-42 -23 -24 -45 -42 -49 -40 -5 1 -8 -4 -8 -11 0 -7 -11 -21 -25 -31 -18 -14
-22 -22 -14 -27 14 -8 59 10 59 23 0 11 26 38 36 38 8 0 19 9 76 64 20 20 39
36 43 36 3 0 20 13 38 30 18 16 38 30 45 30 7 0 10 5 7 10 -3 6 -1 10 4 10 10
0 43 25 79 60 9 8 18 15 21 15 5 0 32 22 75 60 29 26 49 39 42 27 -4 -6 -3
-12 3 -12 5 0 12 4 15 8 3 5 24 9 48 10 24 2 81 5 128 7 47 2 96 7 110 10 14
4 57 8 95 10 77 4 97 7 105 16 3 4 37 9 77 12 39 3 77 8 83 12 7 4 38 9 68 11
31 2 59 10 64 16 4 7 8 10 8 7 0 -11 103 10 112 23 6 10 8 10 8 -1 0 -9 4 -10
13 -3 6 5 23 9 37 8 14 -1 31 4 38 11 7 7 23 14 35 14 31 2 38 4 70 17 16 7
37 12 47 12 10 0 22 5 25 10 3 6 16 10 29 10 13 0 37 7 54 16 18 8 36 13 41
10 5 -3 11 1 15 9 3 8 16 15 29 15 13 0 27 4 33 9 20 20 61 20 78 -1 10 -11
15 -23 11 -26 -4 -4 -11 1 -16 10 -6 11 -21 16 -42 16 -17 -1 -26 -3 -19 -5 6
-3 12 -9 12 -14 0 -6 -6 -9 -12 -7 -18 3 -58 -12 -58 -21 0 -5 -11 -7 -25 -6
-14 2 -23 -2 -22 -8 2 -11 -3 -12 -51 -15 -13 -1 -20 -6 -17 -12 5 -8 -30 -13
-61 -9 -4 0 -10 -5 -15 -13 -5 -7 -16 -14 -26 -15 -20 -2 -41 -7 -63 -15 -41
-16 -128 -35 -147 -33 -13 1 -23 -2 -23 -6 0 -8 -22 -13 -100 -23 -19 -3 -36
-10 -38 -15 -2 -6 -8 -11 -13 -11 -6 0 -7 5 -3 12 5 8 3 8 -7 2 -14 -9 -22
-10 -82 -13 -16 0 -26 -5 -23 -9 2 -4 -3 -8 -12 -9 -9 -1 -50 -3 -91 -6 -40
-2 -76 -8 -80 -13 -3 -5 -37 -9 -76 -9 -38 0 -79 -4 -90 -9 -11 -6 -30 -9 -42
-7 -13 1 -23 -1 -23 -6 0 -4 -45 -7 -101 -7 -77 1 -102 -2 -106 -12 -3 -8 -9
-14 -15 -14 -5 0 -15 -6 -22 -13 -27 -26 -71 -61 -76 -61 -6 0 -24 -14 -50
-40 -11 -11 -20 -16 -20 -10 0 5 -5 1 -11 -9 -5 -9 -17 -17 -25 -17 -8 0 -13
-4 -9 -9 3 -5 -4 -12 -15 -16 -11 -3 -20 -11 -20 -17 0 -6 -2 -9 -5 -6 -6 5
-22 -7 -82 -60 -14 -12 -30 -22 -35 -22 -5 0 -6 -4 -3 -10 3 -5 -1 -10 -9 -10
-9 0 -16 -4 -16 -10 0 -5 -6 -10 -13 -10 -8 0 -14 -6 -14 -14 0 -18 48 -2 72
24 10 11 22 17 26 14 5 -3 9 3 9 12 0 10 3 15 6 11 6 -6 18 2 62 43 14 14 29
25 32 24 5 0 8 2 60 46 19 16 39 30 43 30 9 0 24 12 69 55 17 17 33 29 35 28
9 -8 23 -2 18 7 -6 9 8 14 28 11 4 0 7 5 7 12 0 9 27 13 103 15 138 4 166 6
161 13 -2 3 27 7 64 8 84 3 118 7 133 17 7 4 42 9 78 11 36 2 68 7 71 11 7 9
22 12 76 14 24 1 44 5 44 9 0 7 8 8 70 11 25 2 50 9 55 15 6 7 26 13 45 15 19
1 41 6 48 11 6 5 31 11 53 12 23 1 44 7 48 12 3 6 25 13 49 17 33 4 42 2 42
-9 0 -10 -10 -15 -29 -15 -26 0 -55 -18 -34 -21 56 -8 74 -7 86 5 16 16 45 15
56 -2 6 -11 35 -11 46 0 3 3 -1 11 -10 18 -12 10 -15 10 -15 -1 0 -11 -2 -11
-9 1 -13 19 -5 29 19 23 11 -3 17 -9 14 -14 -3 -5 -1 -9 5 -9 18 0 41 12 41
22 0 5 -3 7 -7 5 -5 -3 -14 2 -22 10 -12 13 -11 14 6 9 12 -4 25 -1 33 9 7 8
17 15 22 15 6 0 0 -9 -13 -20 -15 -12 -19 -19 -10 -20 7 0 32 19 54 43 22 23
37 35 32 27 -6 -12 -5 -12 5 -3 13 12 4 37 -11 28 -5 -4 -9 1 -9 9 0 9 5 16
10 16 6 0 10 -4 10 -10 0 -5 9 -10 20 -10 11 0 20 4 20 10 0 5 14 23 30 40 17
17 30 35 30 40 0 15 -30 12 -36 -3 -5 -15 -41 -20 -49 -6 -4 5 5 9 19 9 13 0
26 5 28 12 6 17 36 18 42 2 3 -8 10 -14 16 -14 6 0 8 5 5 10 -3 6 1 13 9 16 9
3 16 13 16 22 0 8 3 13 6 9 7 -7 54 46 54 61 0 6 10 14 21 17 17 6 18 9 8 16
-11 6 -10 9 4 15 9 3 17 10 17 16 0 5 11 20 25 34 14 14 22 30 19 36 -5 7 -1
9 9 5 11 -4 15 0 14 14 -1 10 -1 19 -2 19 0 0 -14 -12 -30 -27z m-85 -123
c-20 -13 -43 -13 -35 0 3 6 16 10 28 10 18 0 19 -2 7 -10z m-75 -100 c-3 -5
-10 -10 -16 -10 -5 0 -9 5 -9 10 0 6 7 10 16 10 8 0 12 -4 9 -10z m-165 -164
c0 -4 -7 -3 -15 4 -8 7 -15 9 -15 6 0 -4 -5 -4 -10 -1 -6 4 -8 10 -5 15 7 11
45 -10 45 -24z m-53 -10 c-2 -6 -16 -9 -31 -8 -17 2 -26 0 -22 -6 7 -11 -16
-22 -45 -22 -11 0 -18 -4 -15 -9 6 -10 -52 -24 -65 -15 -17 10 -9 26 11 21 11
-3 27 1 34 9 8 8 26 14 39 14 14 0 29 6 35 13 13 15 64 18 59 3z"/>
<path d="M1855 1070 c-2 -3 -6 -18 -9 -33 -6 -36 -15 -49 -28 -41 -6 4 -8 3
-5 -3 3 -5 -23 -39 -57 -76 -35 -37 -61 -67 -57 -67 3 0 1 -4 -5 -8 -5 -4 -23
-25 -39 -47 -17 -22 -36 -44 -43 -48 -7 -5 -10 -12 -7 -18 4 -5 -1 -12 -9 -15
-9 -3 -16 -12 -16 -18 0 -7 -6 -18 -12 -24 -7 -7 -14 -17 -14 -22 -1 -6 -2
-14 -3 -20 0 -5 -7 -10 -15 -10 -9 0 -13 -7 -11 -19 2 -13 -4 -21 -18 -25 -12
-3 -24 -2 -27 2 -3 4 -14 8 -25 9 -63 8 -101 16 -110 23 -5 4 -26 10 -46 13
-20 2 -43 8 -50 13 -8 5 -25 9 -39 10 -14 0 -24 5 -23 11 1 6 -11 13 -27 15
-17 3 -30 1 -30 -4 0 -5 -5 -6 -11 -3 -6 4 -13 -3 -16 -15 -4 -14 -8 -18 -13
-10 -5 9 -9 9 -14 1 -4 -6 -2 -11 4 -11 6 0 9 -4 6 -9 -4 -5 4 -7 16 -3 14 3
19 2 14 -6 -11 -18 23 -27 46 -13 33 21 70 32 62 20 -4 -8 1 -9 16 -4 20 6 21
5 9 -8 -8 -8 -23 -14 -34 -13 -11 2 -28 -5 -38 -14 -17 -17 -16 -18 10 -36 15
-10 31 -17 36 -16 4 1 7 -4 7 -11 0 -8 4 -7 10 3 9 13 10 13 10 0 0 -13 1 -13
10 0 6 9 5 17 -3 22 -7 5 2 6 19 3 23 -3 34 -1 38 10 4 12 -3 15 -39 13 -34
-2 -45 -7 -49 -23 -4 -13 -9 -16 -13 -9 -5 6 -17 15 -27 21 -17 10 -17 11 7
12 50 3 56 4 54 14 -3 13 84 15 90 2 2 -6 20 -12 40 -13 21 -2 41 -8 45 -15 6
-9 8 -9 8 1 0 6 5 12 11 12 5 0 7 -4 4 -10 -3 -5 0 -10 7 -11 7 0 32 -2 55 -5
36 -4 42 -2 49 18 3 12 13 28 20 36 8 7 14 20 14 28 0 8 5 14 11 14 5 0 8 4 5
9 -4 5 -2 11 2 13 4 1 22 23 39 48 17 25 41 56 52 70 12 14 38 45 59 69 68 79
143 152 152 146 15 -9 28 28 19 53 -5 12 -12 23 -16 23 -33 6 -54 5 -58 -1z
m-680 -437 c3 -9 -6 -12 -27 -10 -17 1 -33 7 -35 13 -5 14 56 11 62 -3z"/>
<path d="M2185 1040 c-4 -6 -11 -8 -16 -5 -8 6 -10 1 -13 -37 -1 -7 -31 -43
-68 -80 -37 -38 -64 -68 -60 -68 4 0 -6 -9 -23 -20 -16 -11 -27 -20 -24 -20 3
0 -18 -26 -48 -57 -66 -69 -171 -199 -184 -227 -42 -91 -53 -103 -93 -102 -37
1 -78 -26 -62 -41 4 -4 10 -3 14 3 4 6 29 10 56 9 41 -2 53 1 72 22 13 14 22
29 19 33 -3 4 2 13 10 20 8 7 15 17 15 22 0 20 115 160 236 284 39 41 68 76
66 79 -3 3 0 5 6 5 7 0 31 21 55 46 24 25 50 46 59 48 24 3 48 26 48 45 0 29
-52 61 -65 41z"/>
<path d="M2492 1018 c-5 -7 -12 -22 -14 -33 -1 -11 -14 -28 -28 -37 -14 -10
-21 -18 -17 -18 5 0 -4 -11 -20 -24 -16 -13 -66 -61 -112 -105 -46 -45 -87
-81 -92 -81 -5 0 -8 -3 -7 -7 2 -5 -38 -49 -87 -98 -107 -108 -165 -173 -165
-186 0 -5 -3 -9 -8 -9 -4 0 -16 -17 -27 -37 -11 -21 -24 -41 -28 -44 -5 -3 -9
-10 -9 -15 -1 -26 -12 -33 -49 -30 -27 2 -43 -2 -55 -15 -14 -16 -14 -18 5
-28 26 -14 32 -14 28 2 -1 7 7 12 21 11 12 -1 22 3 22 8 0 5 9 4 19 -2 22 -11
51 9 51 36 0 8 5 14 11 14 5 0 8 4 5 9 -6 9 56 99 78 113 6 4 7 8 3 8 -11 0
338 347 428 425 37 33 77 63 87 67 10 4 27 16 38 26 18 17 18 20 4 40 -17 24
-65 30 -82 10z"/>
<path d="M1564 916 c-9 -7 -14 -21 -12 -32 2 -10 -6 -29 -17 -41 -11 -13 -29
-40 -40 -60 -11 -21 -23 -40 -26 -43 -3 -3 -12 -18 -20 -35 -13 -28 -18 -30
-69 -31 -30 0 -58 4 -61 9 -3 4 -23 10 -43 13 -55 6 -59 8 -74 21 -7 7 -19 10
-28 6 -8 -3 -22 1 -32 9 -20 17 -78 23 -86 10 -3 -5 2 -16 11 -23 14 -12 16
-12 8 1 -8 13 -7 13 8 1 9 -7 17 -10 17 -6 0 4 6 3 13 -3 6 -6 15 -11 19 -11
4 -1 13 -3 20 -6 7 -2 24 -5 38 -7 14 -2 24 -8 23 -13 -1 -6 16 -10 38 -9 21
0 39 -2 39 -6 0 -4 6 -7 13 -8 6 -1 28 -4 47 -6 19 -2 35 -5 35 -6 0 -1 11 -4
24 -6 14 -2 27 -6 29 -9 7 -7 52 47 46 56 -3 5 -1 9 5 9 5 0 13 10 18 23 19
52 78 126 105 131 25 5 27 8 18 30 -5 13 -7 26 -5 28 2 2 -7 8 -20 14 -18 9
-28 9 -41 0z"/>
<path d="M1844 872 c-6 -4 -10 -15 -8 -24 1 -10 -2 -18 -8 -18 -5 0 -8 -5 -6
-12 2 -6 -13 -28 -33 -49 -45 -46 -115 -144 -156 -218 -28 -50 -33 -55 -67
-56 -20 0 -36 2 -36 6 0 5 -8 7 -50 11 -11 1 -20 6 -20 10 0 4 -10 5 -22 3
-12 -3 -25 0 -28 5 -11 18 -62 19 -101 2 -52 -22 -59 -42 -14 -42 36 0 45 -19
16 -31 -11 -4 -9 -7 7 -11 12 -4 20 -3 17 2 -8 13 26 21 40 10 6 -5 15 -7 18
-3 10 10 8 -10 -3 -27 -14 -23 8 -44 27 -24 11 10 12 18 4 27 -8 10 -4 13 17
13 15 -1 30 -5 35 -11 8 -12 29 14 21 27 -3 4 0 8 6 8 6 0 8 5 4 11 -4 8 -9 7
-14 -2 -7 -10 -110 -21 -110 -11 0 26 104 38 132 15 7 -6 36 -14 65 -16 58 -5
61 -3 107 84 16 30 36 60 44 67 9 6 12 12 6 12 -5 0 -4 4 1 8 6 4 25 25 42 47
56 73 99 115 117 115 9 0 19 7 22 15 4 8 11 12 18 8 6 -3 3 3 -6 14 -10 11
-18 24 -18 29 0 12 -51 17 -66 6z m-513 -362 c6 0 8 4 4 9 -3 6 6 6 25 1 20
-6 30 -5 30 2 0 6 2 9 5 6 3 -3 3 -12 0 -20 -5 -13 -31 -16 -77 -9 -5 0 -8 9
-7 19 0 10 3 12 6 5 2 -7 9 -13 14 -13z m79 -90 c0 -5 -5 -10 -11 -10 -5 0 -7
5 -4 10 3 6 8 10 11 10 2 0 4 -4 4 -10z"/>
<path d="M2171 865 c-5 -5 -12 -20 -16 -33 -3 -12 -41 -58 -83 -101 -117 -118
-171 -179 -164 -185 3 -3 0 -6 -6 -6 -12 0 -102 -131 -102 -150 0 -18 -27 -40
-49 -40 -12 0 -21 4 -21 9 0 4 -25 9 -56 10 -38 1 -53 -3 -48 -10 3 -6 -5 -3
-20 6 -31 20 -31 23 -9 47 15 17 15 18 0 18 -10 0 -17 4 -17 8 0 4 -16 8 -35
8 -19 0 -35 -3 -35 -7 0 -13 -53 -30 -60 -19 -4 6 -11 1 -18 -14 -14 -31 -7
-37 29 -24 17 6 26 14 22 21 -3 7 3 3 15 -7 23 -20 30 -32 12 -21 -5 3 -10 2
-10 -4 0 -5 -8 -12 -17 -14 -12 -3 -9 -5 8 -6 14 0 31 -7 38 -13 11 -10 13
-10 7 -1 -9 16 -1 16 25 2 13 -7 18 -16 14 -27 -3 -9 -3 -13 1 -9 4 4 13 -1
21 -11 13 -16 13 -15 5 3 -10 20 -12 27 -12 45 0 6 -3 9 -7 9 -19 -3 -30 2
-30 15 0 9 6 12 16 8 23 -8 37 -25 36 -42 0 -8 8 -26 18 -40 16 -21 18 -22 13
-4 -4 14 -2 21 7 21 9 0 12 -7 9 -19 -2 -10 1 -18 7 -18 6 0 14 0 19 0 4 0 7
5 7 12 0 7 12 12 26 13 14 0 33 8 43 18 20 20 36 22 36 5 0 -7 12 0 26 15 14
16 23 31 20 34 -23 23 328 422 379 429 39 6 53 40 26 67 -15 15 -59 17 -70 2z
m-591 -460 c-14 -16 -67 -17 -74 0 -3 10 4 13 30 10 18 -2 31 1 28 6 -3 5 2 6
11 3 11 -5 13 -10 5 -19z m-120 -9 c0 -2 -7 -7 -16 -10 -8 -3 -12 -2 -9 4 6
10 25 14 25 6z m272 -63 c4 -13 -1 -18 -19 -19 -12 -1 -23 3 -23 10 0 7 -3 7
-8 1 -8 -11 -62 -16 -62 -6 0 13 39 30 59 26 11 -2 23 1 26 6 8 12 21 4 27
-18z"/>
<path d="M865 850 c-3 -6 1 -7 9 -4 18 7 21 14 7 14 -6 0 -13 -4 -16 -10z"/>
<path d="M2641 843 c-12 -8 -19 -18 -16 -23 6 -10 -82 -100 -97 -100 -5 0 -6
-4 -3 -10 3 -5 1 -10 -5 -10 -6 0 -17 -6 -24 -12 -7 -7 -46 -42 -87 -78 -79
-70 -271 -260 -304 -301 -33 -41 -57 -89 -52 -103 5 -12 -14 -15 -110 -19 -7
0 -13 -3 -13 -7 0 -9 133 -6 148 3 7 5 10 12 7 16 -6 10 47 85 86 123 15 14
25 29 21 32 -3 3 2 6 12 6 9 0 15 4 11 9 -3 6 1 13 8 18 8 4 63 54 123 109
123 115 147 136 201 181 21 17 52 44 68 60 17 15 34 29 38 31 4 1 15 6 24 9
39 15 51 50 23 68 -23 15 -37 14 -59 -2z"/>
<path d="M2472 843 c-6 -2 -10 -9 -6 -14 3 -5 0 -9 -6 -9 -6 0 -9 -4 -5 -9 3
-6 -12 -27 -33 -48 -58 -57 -273 -257 -286 -265 -6 -4 -7 -8 -3 -8 4 0 -7 -15
-26 -32 -45 -44 -107 -122 -107 -137 0 -6 -4 -11 -9 -11 -5 0 -13 -10 -17 -22
-11 -37 -37 -56 -62 -47 -15 6 -22 5 -22 -3 0 -6 -3 -8 -7 -5 -3 4 -12 2 -20
-5 -11 -9 -12 -7 -7 7 5 13 4 16 -5 11 -6 -4 -19 -2 -28 6 -13 10 -12 6 3 -17
19 -30 19 -30 -1 -15 -19 14 -19 14 -6 -3 9 -11 21 -15 34 -11 14 5 18 3 12
-7 -6 -11 -5 -12 6 -1 17 15 43 16 33 0 -4 -7 -3 -8 5 -4 6 4 9 12 6 17 -3 5
8 7 26 5 29 -3 76 24 63 37 -4 4 75 117 100 143 6 6 32 33 57 60 25 27 88 87
139 134 50 47 114 105 140 130 27 25 57 46 67 48 10 2 23 10 29 18 6 7 14 10
18 6 5 -4 6 2 4 13 -6 36 -46 54 -86 38z"/>
<path d="M1050 685 c-22 -27 2 -37 40 -18 30 15 32 17 14 24 -29 12 -40 10
-54 -6z"/>
<path d="M3844 585 c-10 -8 -36 -15 -56 -15 -20 0 -41 -6 -45 -12 -4 -7 -26
-14 -48 -15 -63 -3 -66 -4 -53 -20 9 -11 7 -12 -7 -7 -39 15 -90 10 -103 -11
-12 -18 -13 -18 -7 -1 4 15 3 17 -9 7 -19 -16 -56 -22 -56 -9 0 7 -5 7 -14 -1
-8 -6 -18 -11 -22 -10 -23 4 -35 -2 -28 -13 6 -10 4 -10 -8 0 -9 7 -19 9 -21
4 -3 -4 -32 -9 -64 -11 -98 -5 -101 -6 -96 -13 2 -5 -6 -8 -19 -9 -13 -1 -50
-2 -83 -3 -33 -2 -73 -8 -88 -14 -35 -15 -40 -15 -31 -1 4 8 1 8 -12 2 -11 -5
-41 -9 -69 -9 -37 1 -53 -3 -63 -16 -7 -10 -19 -18 -25 -18 -7 0 -19 -9 -27
-20 -8 -11 -20 -20 -27 -20 -6 0 -17 -8 -22 -17 -6 -10 -11 -14 -11 -10 0 5
-18 -5 -39 -22 -21 -17 -44 -31 -50 -31 -6 0 -11 -7 -11 -16 0 -8 -4 -13 -8
-10 -5 3 -20 -6 -35 -20 -14 -13 -30 -24 -35 -24 -6 0 -13 -7 -16 -16 -3 -8
-10 -12 -16 -9 -9 6 -14 -7 -11 -27 0 -4 -5 -5 -12 -2 -7 2 -21 -2 -31 -9 -17
-13 -16 -14 15 -9 36 5 83 32 112 66 10 12 16 14 12 6 -4 -8 0 -7 9 4 8 10 19
15 25 11 6 -3 11 1 11 9 0 9 6 16 14 16 8 0 16 6 19 13 3 8 21 22 41 31 20 9
36 21 36 26 0 6 7 10 15 10 8 0 15 4 15 9 0 5 8 12 18 15 10 4 29 16 41 27 20
18 37 22 111 23 48 1 94 7 102 12 7 6 33 10 58 9 25 -1 57 2 73 6 20 6 25 5
20 -4 -4 -7 0 -7 10 1 9 8 21 11 27 7 5 -3 10 -2 10 3 0 10 4 10 75 13 28 1
55 5 60 8 15 8 34 12 90 17 27 2 51 8 53 14 2 6 8 8 13 4 5 -3 9 -1 9 3 0 5
25 8 55 7 30 -1 52 2 50 7 -7 11 24 19 61 16 29 -3 32 0 29 22 -2 22 -1 23 9
9 8 -11 17 -14 26 -8 7 4 19 6 25 3 7 -2 19 2 27 10 15 15 98 19 98 5 0 -5 -6
-9 -12 -9 -13 -2 -43 -5 -66 -7 -7 -1 -11 -6 -7 -11 3 -5 -8 -9 -25 -9 -17 1
-33 -2 -37 -5 -3 -4 -12 -2 -19 4 -9 8 -11 5 -7 -10 4 -17 1 -19 -32 -17 -20
2 -42 -2 -49 -10 -8 -7 -26 -12 -42 -10 -16 1 -35 -2 -41 -7 -7 -5 -13 -6 -13
-2 0 4 -7 1 -16 -6 -9 -7 -37 -14 -63 -14 -40 -1 -46 -3 -43 -20 4 -20 3 -20
-13 0 -9 11 -14 14 -10 8 5 -10 -8 -12 -50 -10 -31 2 -58 0 -61 -5 -4 -5 -13
-7 -21 -4 -10 4 -13 2 -10 -6 3 -10 -15 -13 -74 -12 -44 1 -79 -2 -79 -7 0 -6
-10 -4 -22 2 -20 11 -21 10 -11 -3 11 -12 1 -14 -71 -15 -46 0 -88 -3 -93 -5
-4 -2 -18 -3 -31 -2 -13 1 -26 -5 -29 -12 -3 -8 -9 -11 -14 -9 -10 7 -55 -36
-51 -49 2 -5 -4 -4 -12 4 -12 9 -16 9 -16 1 0 -7 -5 -9 -12 -5 -8 5 -9 2 -5
-9 6 -16 -8 -23 -36 -18 -5 1 -6 -3 -2 -9 3 -5 -1 -10 -10 -10 -9 0 -28 -12
-42 -27 -14 -16 -29 -27 -34 -26 -5 2 -9 -2 -9 -8 0 -5 -5 -7 -12 -3 -6 4 -8
3 -5 -3 4 -6 -3 -13 -15 -16 -12 -4 -19 -9 -15 -13 7 -8 73 21 82 36 4 6 11 8
16 5 5 -4 9 1 9 10 0 11 5 15 15 11 9 -3 19 3 25 14 6 11 14 19 18 18 14 -3
42 14 36 23 -3 5 1 7 8 4 7 -3 25 6 41 21 15 14 37 26 48 27 11 1 17 7 15 14
-3 7 -1 13 4 13 6 0 10 -5 10 -11 0 -5 5 -7 12 -3 6 4 48 8 92 9 117 3 128 4
122 13 -3 5 25 10 62 10 69 2 86 4 112 16 8 3 40 8 70 9 31 2 62 7 70 12 14 9
46 14 107 18 12 0 21 6 20 11 -1 6 18 10 45 10 28 0 46 4 45 10 -1 6 11 10 28
10 17 -1 33 3 37 10 6 8 8 7 8 -1 0 -8 8 -5 20 7 12 12 25 18 30 15 5 -3 26 1
46 10 20 8 40 13 44 10 5 -3 11 -1 15 5 4 6 11 7 17 4 6 -4 8 -2 5 3 -7 11 41
25 55 17 13 -8 -4 -35 -18 -30 -8 3 -14 1 -14 -5 0 -6 -5 -7 -12 -3 -7 4 -8 3
-4 -4 5 -8 0 -12 -13 -12 -12 0 -21 -5 -21 -11 0 -5 -4 -8 -9 -4 -5 3 -12 1
-16 -5 -4 -6 -11 -7 -17 -4 -7 5 -8 2 -3 -6 6 -10 4 -12 -11 -6 -14 5 -16 4
-8 -4 7 -7 19 -8 36 -1 14 5 29 7 34 3 4 -4 3 -1 -1 7 -6 11 -4 13 8 8 10 -3
17 -2 17 4 0 6 5 7 10 4 6 -4 9 -1 8 6 -2 7 3 13 10 14 8 0 19 7 25 16 7 9 19
15 28 14 9 -2 16 3 16 11 0 9 -4 10 -11 5 -7 -6 -16 -4 -24 5 -7 8 -11 14 -10
15 26 7 45 6 54 -2 9 -7 11 -5 9 8 -2 10 -4 21 -4 24 -1 5 -24 5 -53 0 -5 0
-8 -7 -8 -15 0 -15 -35 -11 -58 7 -20 16 -68 17 -88 2z"/>
<path d="M1354 443 c2 -10 6 -17 10 -16 15 3 16 11 2 22 -12 10 -14 9 -12 -6z"/>
<path d="M3810 440 c0 -5 -9 -7 -19 -5 -11 2 -24 -2 -30 -9 -6 -7 -25 -12 -43
-11 -18 1 -39 -3 -47 -9 -12 -8 -13 -8 -7 2 7 11 4 11 -13 0 -25 -15 -27 -33
-6 -42 8 -3 15 0 15 7 0 8 3 8 9 -2 7 -11 10 -10 15 6 5 14 14 19 34 18 15 -1
34 6 42 15 8 10 24 16 34 14 11 -1 26 1 34 5 12 7 12 9 -2 14 -9 4 -16 2 -16
-3z"/>
<path d="M3574 299 c-19 -22 -19 -22 3 -10 12 6 32 11 45 12 22 0 22 1 3 9
-29 12 -30 12 -51 -11z"/>
<path d="M1754 285 c-15 -23 -43 -37 -29 -15 3 6 -1 7 -10 4 -12 -5 -13 -10
-5 -20 7 -7 19 -10 27 -7 11 4 14 2 9 -5 -4 -7 -1 -12 8 -12 18 0 21 16 6 25
-6 4 -4 16 6 31 9 13 14 24 10 24 -3 0 -13 -11 -22 -25z"/>
<path d="M2917 272 c-27 -3 -52 -33 -39 -47 4 -5 2 -5 -5 -2 -15 9 -45 -2 -37
-14 5 -8 -9 -13 -28 -10 -5 0 -8 -4 -8 -10 0 -5 -4 -7 -10 -4 -5 3 -10 1 -10
-4 0 -6 -6 -11 -14 -11 -7 0 -19 -7 -26 -15 -7 -8 -16 -13 -20 -10 -4 3 -10
-1 -13 -8 -4 -10 2 -13 19 -9 13 2 24 8 24 13 0 5 3 8 8 8 24 -4 42 2 36 13
-5 8 0 9 14 6 15 -4 22 -2 22 9 0 8 5 11 10 8 6 -3 10 -1 10 5 0 6 5 8 10 5 6
-3 10 -2 10 3 0 9 65 28 83 24 9 -2 9 30 -1 43 -4 6 -19 9 -35 7z"/>
<path d="M3198 236 c-15 -8 -30 -11 -34 -8 -4 4 -4 2 -1 -4 4 -7 -4 -11 -23
-10 -17 1 -30 4 -30 7 0 3 -20 3 -44 -1 -24 -3 -51 -5 -60 -4 -9 1 -16 -4 -16
-11 0 -8 16 -13 45 -13 55 -1 66 -7 58 -30 -5 -14 -3 -15 8 -4 7 6 18 12 24
12 5 0 2 -5 -7 -11 -24 -13 -23 -25 1 -25 11 0 17 4 15 8 -3 4 0 8 5 8 6 0 11
-4 11 -8 0 -5 10 -8 23 -6 12 1 26 3 30 3 5 1 6 5 3 10 -3 5 1 14 9 21 13 10
15 10 12 -1 -2 -8 -2 -11 0 -6 3 4 10 4 16 0 9 -5 9 -3 1 8 -9 11 -9 17 1 26
9 8 16 9 20 3 4 -7 13 -7 25 0 11 6 21 6 24 1 8 -12 31 -9 31 4 0 6 -8 10 -17
9 -10 0 -18 4 -18 10 0 6 -5 4 -10 -4 -8 -12 -10 -11 -10 8 0 18 -5 22 -32 22
-18 0 -45 -6 -60 -14z m31 -22 c6 4 11 3 11 -3 0 -16 -34 -31 -50 -21 -12 7
-12 11 0 25 10 11 15 13 20 4 4 -6 13 -8 19 -5z"/>
<path d="M3380 240 c0 -6 -4 -9 -9 -5 -5 3 -12 1 -15 -4 -11 -17 15 -24 31 -8
10 10 11 17 4 21 -6 4 -11 2 -11 -4z"/>
<path d="M2933 186 c1 -6 -5 -11 -13 -12 -8 0 -23 -4 -33 -9 -17 -7 -17 -8 0
-21 28 -21 56 -18 48 6 -4 11 -2 20 4 20 6 0 11 -10 11 -21 0 -19 2 -20 17 -8
9 8 14 9 10 3 -4 -7 0 -14 8 -18 8 -3 14 -2 14 2 -3 21 3 24 16 6 13 -17 14
-17 15 -2 0 9 4 20 10 23 6 3 7 -1 4 -9 -4 -11 0 -16 10 -16 9 0 19 0 23 -1 4
0 9 5 12 12 2 8 -2 10 -15 5 -17 -6 -17 -5 2 15 10 12 13 19 6 15 -18 -11 -72
-14 -72 -4 0 4 -7 4 -17 1 -11 -4 -14 -3 -9 5 4 7 4 12 -1 13 -4 0 -18 2 -30
3 -12 1 -21 -2 -20 -8z"/>
<path d="M2839 139 c-10 -6 -4 -9 19 -9 17 0 32 2 32 4 0 9 -39 13 -51 5z"/>
</g>
</svg>
